<svg width="128" height="128" viewBox="0 0 128 128" fill="none" xmlns="http://www.w3.org/2000/svg">
<mask id="path-1-inside-1_135_4036" fill="white">
<path fill-rule="evenodd" clip-rule="evenodd" d="M37.3471 70.4204C32.9886 94.7084 40.6008 126.609 40.6008 126.609C40.6008 126.609 50.8531 90.9163 63.5 90.9163C76.1469 90.9163 86.3992 126.609 86.3992 126.609C86.3992 126.609 94.0114 94.7084 89.6529 70.4204C102.515 69.4151 111 68.0504 111 68.0504C111 68.0504 106.678 48.868 80.6564 44.0747C82.7688 40.904 84 37.0958 84 33C84 21.9543 75.0457 13 64 13C52.9543 13 44 21.9543 44 33C44 37.5611 45.5268 41.7656 48.0972 45.1303C20.5147 51.2272 16 68.0504 16 68.0504C16 68.0504 24.485 69.4151 37.3471 70.4204Z"/>
</mask>
<path fill-rule="evenodd" clip-rule="evenodd" d="M37.3471 70.4204C32.9886 94.7084 40.6008 126.609 40.6008 126.609C40.6008 126.609 50.8531 90.9163 63.5 90.9163C76.1469 90.9163 86.3992 126.609 86.3992 126.609C86.3992 126.609 94.0114 94.7084 89.6529 70.4204C102.515 69.4151 111 68.0504 111 68.0504C111 68.0504 106.678 48.868 80.6564 44.0747C82.7688 40.904 84 37.0958 84 33C84 21.9543 75.0457 13 64 13C52.9543 13 44 21.9543 44 33C44 37.5611 45.5268 41.7656 48.0972 45.1303C20.5147 51.2272 16 68.0504 16 68.0504C16 68.0504 24.485 69.4151 37.3471 70.4204Z" fill="#117796"/>
<path d="M37.3471 70.4204L39.3157 70.7736L39.706 68.5987L37.503 68.4265L37.3471 70.4204ZM40.6008 126.609L38.6554 127.074L40.4219 134.477L42.5231 127.162L40.6008 126.609ZM86.3992 126.609L84.4769 127.162L86.5781 134.477L88.3446 127.074L86.3992 126.609ZM89.6529 70.4204L89.497 68.4265L87.294 68.5987L87.6843 70.7736L89.6529 70.4204ZM111 68.0504L111.318 70.0251L113.419 69.6871L112.951 67.6108L111 68.0504ZM80.6564 44.0747L78.992 42.9658L77.3091 45.4918L80.2941 46.0416L80.6564 44.0747ZM48.0972 45.1303L48.5289 47.0832L51.5892 46.4067L49.6865 43.9162L48.0972 45.1303ZM16 68.0504L14.0683 67.5321L13.4938 69.6731L15.6824 70.0251L16 68.0504ZM35.3786 70.0671C33.1463 82.5067 33.9881 96.7893 35.3546 107.868C36.0402 113.426 36.8632 118.218 37.5152 121.622C37.8413 123.324 38.125 124.681 38.3277 125.615C38.4291 126.083 38.5103 126.444 38.5665 126.69C38.5946 126.813 38.6165 126.908 38.6315 126.972C38.639 127.004 38.6448 127.029 38.6488 127.046C38.6508 127.054 38.6524 127.061 38.6535 127.065C38.654 127.068 38.6545 127.07 38.6548 127.071C38.655 127.072 38.6551 127.072 38.6552 127.073C38.6553 127.073 38.6554 127.074 40.6008 126.609C42.5462 126.145 42.5462 126.145 42.5462 126.145C42.5462 126.145 42.5462 126.145 42.5461 126.145C42.546 126.144 42.5457 126.143 42.5453 126.142C42.5446 126.139 42.5434 126.134 42.5418 126.127C42.5385 126.113 42.5334 126.091 42.5267 126.062C42.5132 126.004 42.4928 125.917 42.4662 125.8C42.413 125.567 42.335 125.22 42.2367 124.767C42.0402 123.862 41.7632 122.537 41.4438 120.869C40.8047 117.533 39.9971 112.831 39.3245 107.378C37.9745 96.4339 37.1895 82.6221 39.3157 70.7736L35.3786 70.0671ZM40.6008 126.609C42.5231 127.162 42.523 127.162 42.523 127.162C42.5231 127.162 42.5231 127.161 42.5232 127.161C42.5234 127.16 42.5237 127.159 42.5242 127.157C42.5252 127.154 42.5269 127.148 42.5291 127.141C42.5336 127.125 42.5405 127.101 42.5499 127.069C42.5687 127.005 42.5972 126.909 42.6352 126.782C42.7112 126.527 42.8251 126.152 42.975 125.672C43.2749 124.713 43.7184 123.338 44.2902 121.687C45.4356 118.379 47.0876 113.985 49.1218 109.605C51.1652 105.205 53.5495 100.917 56.1341 97.7603C58.7869 94.5202 61.2832 92.9163 63.5 92.9163V88.9163C59.3934 88.9163 55.8656 91.7741 53.0391 95.2264C50.1444 98.762 47.5943 103.397 45.4939 107.92C43.3841 112.464 41.6826 116.993 40.5104 120.378C39.9235 122.073 39.4673 123.487 39.1571 124.479C39.002 124.975 38.8833 125.367 38.8029 125.636C38.7627 125.77 38.7321 125.874 38.7113 125.945C38.7009 125.98 38.6929 126.008 38.6874 126.026C38.6847 126.036 38.6826 126.043 38.6811 126.048C38.6804 126.051 38.6798 126.053 38.6793 126.054C38.6791 126.055 38.6789 126.056 38.6788 126.056C38.6787 126.057 38.6785 126.057 40.6008 126.609ZM63.5 92.9163C65.7168 92.9163 68.2131 94.5202 70.8659 97.7603C73.4505 100.917 75.8348 105.205 77.8782 109.605C79.9124 113.985 81.5644 118.379 82.7098 121.687C83.2816 123.338 83.7251 124.713 84.025 125.672C84.1749 126.152 84.2888 126.527 84.3648 126.782C84.4028 126.909 84.4313 127.005 84.4501 127.069C84.4595 127.101 84.4664 127.125 84.4709 127.141C84.4731 127.148 84.4748 127.154 84.4758 127.157C84.4763 127.159 84.4766 127.16 84.4768 127.161C84.4769 127.161 84.4769 127.162 84.477 127.162C84.477 127.162 84.4769 127.162 86.3992 126.609C88.3215 126.057 88.3213 126.057 88.3212 126.056C88.3211 126.056 88.3209 126.055 88.3207 126.054C88.3202 126.053 88.3196 126.051 88.3189 126.048C88.3174 126.043 88.3153 126.036 88.3126 126.026C88.3071 126.008 88.2991 125.98 88.2887 125.945C88.2679 125.874 88.2373 125.77 88.1971 125.636C88.1167 125.367 87.998 124.975 87.8429 124.479C87.5327 123.487 87.0765 122.073 86.4896 120.378C85.3174 116.993 83.6159 112.464 81.5061 107.92C79.4057 103.397 76.8556 98.762 73.9609 95.2264C71.1344 91.7741 67.6066 88.9163 63.5 88.9163V92.9163ZM86.3992 126.609C88.3446 127.074 88.3447 127.073 88.3448 127.073C88.3449 127.072 88.345 127.072 88.3452 127.071C88.3455 127.07 88.346 127.068 88.3465 127.065C88.3476 127.061 88.3492 127.054 88.3512 127.046C88.3552 127.029 88.361 127.004 88.3685 126.972C88.3835 126.908 88.4054 126.813 88.4335 126.69C88.4897 126.444 88.5709 126.083 88.6723 125.615C88.875 124.681 89.1587 123.324 89.4848 121.622C90.1368 118.218 90.9598 113.426 91.6454 107.868C93.0119 96.7893 93.8537 82.5067 91.6214 70.0671L87.6843 70.7736C89.8105 82.6221 89.0255 96.4339 87.6755 107.378C87.0029 112.831 86.1953 117.533 85.5562 120.869C85.2368 122.537 84.9598 123.862 84.7633 124.767C84.665 125.22 84.587 125.567 84.5338 125.8C84.5072 125.917 84.4868 126.004 84.4733 126.062C84.4666 126.091 84.4615 126.113 84.4582 126.127C84.4566 126.134 84.4554 126.139 84.4547 126.142C84.4543 126.143 84.454 126.144 84.4539 126.145C84.4538 126.145 84.4538 126.145 84.4538 126.145C84.4538 126.145 84.4538 126.145 86.3992 126.609ZM89.8087 72.4143C96.2753 71.9089 101.643 71.313 105.398 70.8429C107.276 70.6079 108.751 70.4042 109.759 70.2589C110.263 70.1863 110.65 70.1282 110.912 70.0881C111.044 70.068 111.144 70.0525 111.211 70.0418C111.245 70.0365 111.271 70.0324 111.289 70.0296C111.298 70.0282 111.305 70.0271 111.309 70.0264C111.312 70.026 111.314 70.0257 111.315 70.0255C111.316 70.0253 111.316 70.0253 111.317 70.0252C111.317 70.0252 111.317 70.0251 111.317 70.0251C111.317 70.0251 111.318 70.0251 111 68.0504C110.682 66.0758 110.683 66.0758 110.683 66.0758C110.683 66.0758 110.683 66.0758 110.683 66.0758C110.682 66.0758 110.682 66.0758 110.682 66.0759C110.681 66.076 110.68 66.0762 110.678 66.0765C110.675 66.0771 110.669 66.0779 110.661 66.0791C110.646 66.0816 110.623 66.0852 110.592 66.0902C110.529 66.1 110.434 66.1147 110.308 66.134C110.057 66.1724 109.68 66.2288 109.188 66.2998C108.203 66.4418 106.753 66.6421 104.901 66.8739C101.198 67.3375 95.8926 67.9266 89.497 68.4265L89.8087 72.4143ZM111 68.0504C112.951 67.6108 112.951 67.6096 112.951 67.6083C112.95 67.6077 112.95 67.6063 112.95 67.6052C112.949 67.6031 112.949 67.6006 112.948 67.5979C112.947 67.5924 112.945 67.5857 112.943 67.5779C112.94 67.5622 112.935 67.5419 112.929 67.5171C112.917 67.4676 112.899 67.4001 112.877 67.3156C112.831 67.1466 112.764 66.9097 112.67 66.6132C112.483 66.0205 112.189 65.188 111.753 64.183C110.883 62.1744 109.442 59.4668 107.146 56.6076C102.527 50.8576 94.5245 44.5956 81.0187 42.1078L80.2941 46.0416C92.81 48.3471 99.9792 54.073 104.027 59.1125C106.064 61.6481 107.33 64.0357 108.083 65.7735C108.459 66.6418 108.706 67.3454 108.857 67.8204C108.932 68.0578 108.983 68.2377 109.013 68.3521C109.029 68.4093 109.039 68.45 109.045 68.4734C109.048 68.485 109.049 68.4923 109.05 68.4952C109.05 68.4966 109.05 68.4969 109.05 68.496C109.05 68.4956 109.05 68.4949 109.05 68.4939C109.05 68.4934 109.049 68.4924 109.049 68.4922C109.049 68.4911 109.049 68.49 111 68.0504ZM82.3209 45.1836C84.6453 41.6946 86 37.5025 86 33H82C82 36.689 80.8924 40.1133 78.992 42.9658L82.3209 45.1836ZM86 33C86 20.8497 76.1503 11 64 11V15C73.9411 15 82 23.0589 82 33H86ZM64 11C51.8497 11 42 20.8497 42 33H46C46 23.0589 54.0589 15 64 15V11ZM42 33C42 38.015 43.6804 42.6432 46.5079 46.3444L49.6865 43.9162C47.3732 40.888 46 37.1072 46 33H42ZM47.6656 43.1774C33.4942 46.3099 25.1009 52.2386 20.2342 57.5216C17.8099 60.1532 16.283 62.6004 15.3553 64.4168C14.8916 65.3247 14.5775 66.075 14.3757 66.6122C14.2747 66.8808 14.2018 67.0964 14.1521 67.2519C14.1273 67.3297 14.1083 67.3925 14.0945 67.4395C14.0876 67.4629 14.0821 67.4825 14.0777 67.4979C14.0756 67.5057 14.0737 67.5124 14.0721 67.5181C14.0714 67.5209 14.0707 67.5235 14.07 67.5258C14.0697 67.527 14.0693 67.5286 14.0691 67.5291C14.0687 67.5306 14.0683 67.5321 16 68.0504C17.9317 68.5688 17.9313 68.5701 17.931 68.5713C17.9309 68.5717 17.9306 68.5728 17.9304 68.5735C17.93 68.5748 17.9298 68.5758 17.9295 68.5766C17.9291 68.5782 17.9289 68.5789 17.929 68.5785C17.9292 68.5777 17.9306 68.573 17.9331 68.5645C17.9381 68.5474 17.9478 68.515 17.9628 68.4681C17.9927 68.3742 18.0437 68.2224 18.1201 68.0191C18.2728 67.6125 18.527 67.0008 18.9175 66.2363C19.6982 64.7078 21.0239 62.5681 23.1761 60.2318C27.4624 55.5789 35.1177 50.0476 48.5289 47.0832L47.6656 43.1774ZM16 68.0504C15.6824 70.0251 15.6826 70.0251 15.6828 70.0251C15.6829 70.0251 15.6831 70.0252 15.6833 70.0252C15.6837 70.0253 15.6842 70.0253 15.6849 70.0255C15.6863 70.0257 15.6881 70.026 15.6905 70.0264C15.6953 70.0271 15.7021 70.0282 15.711 70.0296C15.7287 70.0324 15.7546 70.0365 15.7885 70.0418C15.8564 70.0525 15.9565 70.068 16.0877 70.0881C16.3502 70.1282 16.7374 70.1863 17.2414 70.2589C18.2493 70.4042 19.7241 70.6079 21.6018 70.8429C25.3567 71.313 30.7247 71.9089 37.1913 72.4143L37.503 68.4265C31.1074 67.9266 25.8018 67.3375 22.0987 66.8739C20.2473 66.6421 18.7971 66.4418 17.8121 66.2998C17.3196 66.2288 16.9435 66.1724 16.6917 66.134C16.5658 66.1147 16.471 66.1 16.4083 66.0902C16.377 66.0852 16.3537 66.0816 16.3385 66.0791C16.3309 66.0779 16.3254 66.0771 16.3219 66.0765C16.3201 66.0762 16.3189 66.076 16.3182 66.0759C16.3178 66.0758 16.3176 66.0758 16.3175 66.0758C16.3174 66.0758 16.3175 66.0758 16.3174 66.0758C16.3175 66.0758 16.3176 66.0758 16 68.0504Z" fill="white" mask="url(#path-1-inside-1_135_4036)"/>
</svg>
