<svg width="128" height="128" viewBox="0 0 128 128" fill="none" xmlns="http://www.w3.org/2000/svg">
<mask id="path-1-inside-1_134_4005" fill="white">
<path fill-rule="evenodd" clip-rule="evenodd" d="M36.639 73.2819C33.9536 96.7522 40.6008 124.609 40.6008 124.609C40.6008 124.609 50.8531 93.9163 63.5 93.9163C76.1469 93.9163 86.3992 124.609 86.3992 124.609C86.3992 124.609 93.0464 96.7522 90.361 73.2819C102.826 77.9103 111 84 111 84C111 84 106.602 51.584 79.9695 43.0425C82.4996 39.6926 84 35.5215 84 31C84 19.9543 75.0457 11 64 11C52.9543 11 44 19.9543 44 31C44 35.877 45.7456 40.3462 48.6461 43.8171C20.5744 53.3942 16 84 16 84C16 84 24.1744 77.9103 36.639 73.2819Z"/>
</mask>
<path fill-rule="evenodd" clip-rule="evenodd" d="M36.639 73.2819C33.9536 96.7522 40.6008 124.609 40.6008 124.609C40.6008 124.609 50.8531 93.9163 63.5 93.9163C76.1469 93.9163 86.3992 124.609 86.3992 124.609C86.3992 124.609 93.0464 96.7522 90.361 73.2819C102.826 77.9103 111 84 111 84C111 84 106.602 51.584 79.9695 43.0425C82.4996 39.6926 84 35.5215 84 31C84 19.9543 75.0457 11 64 11C52.9543 11 44 19.9543 44 31C44 35.877 45.7456 40.3462 48.6461 43.8171C20.5744 53.3942 16 84 16 84C16 84 24.1744 77.9103 36.639 73.2819Z" fill="#117796"/>
<path d="M36.639 73.2819L40.6131 73.7366L41.3536 67.2644L35.2466 69.5321L36.639 73.2819ZM40.6008 124.609L36.71 125.538L39.9594 139.155L44.3947 125.877L40.6008 124.609ZM86.3992 124.609L82.6053 125.877L87.0406 139.155L90.29 125.538L86.3992 124.609ZM90.361 73.2819L91.7534 69.5321L85.6464 67.2644L86.3869 73.7366L90.361 73.2819ZM111 84L108.61 87.2077L116.243 92.894L114.964 83.4623L111 84ZM79.9695 43.0425L76.7776 40.6317L73.3802 45.1299L78.7479 46.8514L79.9695 43.0425ZM48.6461 43.8171L49.9377 47.6028L55.4507 45.7219L51.7154 41.2521L48.6461 43.8171ZM16 84L12.0439 83.4087L10.6099 93.0034L18.3897 87.2077L16 84ZM32.6649 72.8272C31.2678 85.0384 32.304 98.2447 33.6483 108.278C34.3238 113.32 35.0849 117.616 35.6782 120.656C35.975 122.177 36.2303 123.386 36.4127 124.221C36.5039 124.638 36.5769 124.961 36.6277 125.184C36.6531 125.295 36.673 125.38 36.6869 125.44C36.6939 125.469 36.6993 125.492 36.7032 125.509C36.7051 125.517 36.7067 125.524 36.7078 125.528C36.7084 125.531 36.7088 125.533 36.7092 125.534C36.7094 125.535 36.7096 125.536 36.7097 125.536C36.7099 125.537 36.71 125.538 40.6008 124.609C44.4916 123.681 44.4917 123.681 44.4917 123.682C44.4917 123.682 44.4918 123.682 44.4918 123.682C44.4917 123.682 44.4916 123.681 44.4914 123.68C44.4909 123.678 44.4901 123.675 44.4888 123.669C44.4863 123.659 44.4823 123.642 44.4767 123.618C44.4656 123.57 44.4485 123.497 44.4259 123.398C44.3807 123.201 44.3135 122.903 44.2282 122.512C44.0575 121.732 43.8145 120.581 43.5301 119.124C42.961 116.208 42.228 112.072 41.5774 107.216C40.2695 97.4532 39.3248 84.9957 40.6131 73.7366L32.6649 72.8272ZM40.6008 124.609C44.3947 125.877 44.3946 125.877 44.3944 125.878C44.3944 125.878 44.3943 125.878 44.3943 125.878C44.3943 125.878 44.3945 125.878 44.3948 125.877C44.3954 125.875 44.3966 125.871 44.3985 125.866C44.4022 125.855 44.4083 125.836 44.4169 125.811C44.4341 125.761 44.4609 125.683 44.4971 125.579C44.5696 125.37 44.6796 125.058 44.8254 124.657C45.1171 123.854 45.5508 122.698 46.1108 121.308C47.2349 118.516 48.8493 114.826 50.8274 111.164C52.8243 107.466 55.0948 103.979 57.4836 101.47C59.9529 98.8767 61.979 97.9163 63.5 97.9163V89.9163C58.6976 89.9163 54.6995 92.7925 51.6896 95.9539C48.5991 99.1999 45.9352 103.387 43.7883 107.362C41.6224 111.373 39.8833 115.356 38.6899 118.319C38.0912 119.806 37.625 121.048 37.3066 121.924C37.1474 122.362 37.0248 122.71 36.941 122.951C36.899 123.071 36.8667 123.166 36.8443 123.231C36.8331 123.264 36.8243 123.29 36.8181 123.309C36.815 123.318 36.8125 123.325 36.8106 123.331C36.8096 123.334 36.8089 123.336 36.8082 123.338C36.8079 123.339 36.8076 123.34 36.8074 123.34C36.8071 123.341 36.8069 123.342 40.6008 124.609ZM63.5 97.9163C65.021 97.9163 67.0471 98.8767 69.5164 101.47C71.9052 103.979 74.1757 107.466 76.1726 111.164C78.1507 114.826 79.7651 118.516 80.8892 121.308C81.4492 122.698 81.8829 123.854 82.1746 124.657C82.3204 125.058 82.4304 125.37 82.5029 125.579C82.5391 125.683 82.5659 125.761 82.5831 125.811C82.5917 125.836 82.5978 125.855 82.6015 125.866C82.6034 125.871 82.6046 125.875 82.6052 125.877C82.6055 125.878 82.6057 125.878 82.6057 125.878C82.6057 125.878 82.6056 125.878 82.6056 125.878C82.6054 125.877 82.6053 125.877 86.3992 124.609C90.1931 123.342 90.1929 123.341 90.1926 123.34C90.1924 123.34 90.1921 123.339 90.1918 123.338C90.1911 123.336 90.1904 123.334 90.1894 123.331C90.1875 123.325 90.185 123.318 90.1819 123.309C90.1757 123.29 90.1669 123.264 90.1557 123.231C90.1333 123.166 90.101 123.071 90.059 122.951C89.9752 122.71 89.8526 122.362 89.6934 121.924C89.375 121.048 88.9088 119.806 88.3101 118.319C87.1167 115.356 85.3776 111.373 83.2117 107.362C81.0648 103.387 78.4009 99.1999 75.3104 95.9539C72.3005 92.7925 68.3024 89.9163 63.5 89.9163V97.9163ZM86.3992 124.609C90.29 125.538 90.2901 125.537 90.2903 125.536C90.2904 125.536 90.2906 125.535 90.2908 125.534C90.2912 125.533 90.2916 125.531 90.2922 125.528C90.2933 125.524 90.2949 125.517 90.2968 125.509C90.3007 125.492 90.3061 125.469 90.3131 125.44C90.327 125.38 90.3469 125.295 90.3723 125.184C90.4231 124.961 90.4961 124.638 90.5873 124.221C90.7697 123.386 91.025 122.177 91.3218 120.656C91.9151 117.616 92.6762 113.32 93.3517 108.278C94.696 98.2447 95.7322 85.0384 94.335 72.8272L86.3869 73.7366C87.6752 84.9957 86.7305 97.4532 85.4226 107.216C84.772 112.072 84.039 116.208 83.4699 119.124C83.1855 120.581 82.9425 121.732 82.7718 122.512C82.6865 122.903 82.6193 123.201 82.5741 123.398C82.5515 123.497 82.5344 123.57 82.5233 123.618C82.5177 123.642 82.5137 123.659 82.5112 123.669C82.5099 123.675 82.5091 123.678 82.5086 123.68C82.5084 123.681 82.5083 123.682 82.5082 123.682C82.5082 123.682 82.5083 123.682 82.5083 123.682C82.5083 123.681 82.5084 123.681 86.3992 124.609ZM88.9686 77.0318C94.9389 79.2487 99.8887 81.8189 103.339 83.8317C105.062 84.8365 106.403 85.6981 107.303 86.3004C107.753 86.6014 108.092 86.8373 108.312 86.9935C108.423 87.0716 108.503 87.1297 108.553 87.166C108.578 87.1842 108.596 87.1969 108.605 87.2039C108.61 87.2074 108.613 87.2095 108.614 87.2102C108.614 87.2105 108.614 87.2105 108.613 87.21C108.613 87.2098 108.613 87.2096 108.612 87.2092C108.612 87.209 108.612 87.2086 108.611 87.2085C108.611 87.2081 108.61 87.2077 111 84C113.39 80.7923 113.389 80.7918 113.388 80.7913C113.388 80.7912 113.387 80.7907 113.387 80.7903C113.386 80.7895 113.385 80.7887 113.384 80.7877C113.381 80.7858 113.378 80.7836 113.374 80.781C113.367 80.7757 113.358 80.769 113.347 80.7609C113.325 80.7446 113.295 80.7225 113.257 80.695C113.181 80.6398 113.074 80.5626 112.936 80.4651C112.661 80.2702 112.264 79.9941 111.753 79.6519C110.731 78.9678 109.249 78.0176 107.37 76.9215C103.617 74.7323 98.2477 71.9436 91.7534 69.5321L88.9686 77.0318ZM111 84C114.964 83.4623 114.963 83.4606 114.963 83.4589C114.963 83.4581 114.963 83.4563 114.963 83.4548C114.962 83.4518 114.962 83.4483 114.961 83.4443C114.96 83.4364 114.959 83.4264 114.957 83.4145C114.954 83.3908 114.949 83.3592 114.943 83.32C114.932 83.2417 114.915 83.133 114.893 82.9956C114.848 82.721 114.782 82.3314 114.688 81.8409C114.501 80.8605 114.206 79.4731 113.767 77.7909C112.891 74.435 111.428 69.8599 109.074 64.985C104.388 55.2805 95.9495 43.9668 81.191 39.2336L78.7479 46.8514C90.6222 50.6596 97.6987 59.8247 101.87 68.4636C103.945 72.7603 105.246 76.8231 106.026 79.8122C106.416 81.3024 106.672 82.5142 106.83 83.34C106.909 83.7525 106.962 84.0678 106.995 84.2721C107.012 84.3743 107.023 84.4486 107.03 84.4935C107.033 84.5159 107.035 84.531 107.036 84.5384C107.037 84.5421 107.037 84.544 107.037 84.5439C107.037 84.5438 107.037 84.5433 107.037 84.5423C107.037 84.5417 107.037 84.5406 107.037 84.5404C107.037 84.5391 107.036 84.5377 111 84ZM83.1614 45.4532C86.1977 41.4331 88 36.4213 88 31H80C80 34.6217 78.8014 37.9521 76.7776 40.6317L83.1614 45.4532ZM88 31C88 17.7452 77.2548 7 64 7V15C72.8366 15 80 22.1634 80 31H88ZM64 7C50.7452 7 40 17.7452 40 31H48C48 22.1634 55.1634 15 64 15V7ZM40 31C40 36.8489 42.0974 42.2185 45.5767 46.382L51.7154 41.2521C49.3938 38.4739 48 34.905 48 31H40ZM47.3545 40.0313C32.0541 45.2513 23.2152 56.2062 18.2557 65.6384C15.7752 70.3562 14.2334 74.7461 13.3089 77.9635C12.8457 79.5757 12.5346 80.9033 12.337 81.8431C12.2381 82.3133 12.1675 82.6873 12.1202 82.9523C12.0966 83.0848 12.0789 83.1902 12.0664 83.2667C12.0601 83.305 12.0551 83.3361 12.0514 83.3599C12.0496 83.3717 12.048 83.3818 12.0468 83.3899C12.0462 83.394 12.0456 83.3976 12.0451 83.4007C12.0449 83.4023 12.0446 83.4043 12.0445 83.4051C12.0442 83.407 12.0439 83.4087 16 84C19.9561 84.5913 19.9558 84.5928 19.9556 84.5942C19.9556 84.5945 19.9554 84.5958 19.9553 84.5965C19.9551 84.5978 19.955 84.5986 19.9549 84.5989C19.9548 84.5997 19.955 84.5986 19.9554 84.5957C19.9563 84.5899 19.9584 84.577 19.9616 84.5571C19.9681 84.5173 19.9795 84.4496 19.9962 84.3556C20.0297 84.1676 20.0847 83.8747 20.1658 83.4893C20.328 82.718 20.5936 81.5797 20.9978 80.1729C21.8083 77.3524 23.1646 73.4923 25.3366 69.3615C29.6823 61.0965 37.1665 51.9599 49.9377 47.6028L47.3545 40.0313ZM16 84C18.3897 87.2077 18.3891 87.2081 18.3886 87.2085C18.3885 87.2086 18.388 87.209 18.3877 87.2092C18.3872 87.2095 18.3868 87.2098 18.3865 87.21C18.386 87.2105 18.3859 87.2105 18.3864 87.2102C18.3873 87.2095 18.3901 87.2074 18.3949 87.2039C18.4044 87.1969 18.4217 87.1842 18.4467 87.166C18.4967 87.1297 18.5773 87.0716 18.6875 86.9935C18.908 86.8373 19.247 86.6014 19.6968 86.3004C20.5968 85.6981 21.9382 84.8365 23.6608 83.8317C27.1113 81.8189 32.0611 79.2487 38.0314 77.0318L35.2466 69.5321C28.7523 71.9436 23.3827 74.7323 19.6298 76.9215C17.7507 78.0176 16.2695 78.9678 15.2473 79.6519C14.736 79.9941 14.3389 80.2702 14.0637 80.4651C13.926 80.5626 13.8188 80.6398 13.743 80.695C13.705 80.7225 13.6749 80.7446 13.6528 80.7609C13.6417 80.769 13.6326 80.7757 13.6256 80.781C13.622 80.7836 13.619 80.7858 13.6164 80.7877C13.6152 80.7887 13.614 80.7895 13.613 80.7903C13.6125 80.7907 13.6118 80.7912 13.6116 80.7913C13.6109 80.7918 13.6103 80.7923 16 84Z" fill="white" mask="url(#path-1-inside-1_134_4005)"/>
</svg>
