<svg width="500" height="500" viewBox="0 0 500 500" fill="none" xmlns="http://www.w3.org/2000/svg">
<g clip-path="url(#clip0_519_1626)">
<rect width="500" height="500" fill="#14152B"/>
<path fill-rule="evenodd" clip-rule="evenodd" d="M435.727 27H82.5455V380.182H435.727V27ZM194.573 376.345C194.573 376.345 173.569 288.323 185.595 221.306C150.105 218.532 126.693 214.767 126.693 214.767C126.693 214.767 139.15 168.348 215.257 151.525C208.165 142.241 203.952 130.64 203.952 118.055C203.952 87.5771 228.659 62.87 259.136 62.87C289.614 62.87 314.321 87.5771 314.321 118.055C314.321 129.356 310.924 139.864 305.095 148.612C376.895 161.838 388.82 214.767 388.82 214.767C388.82 214.767 365.408 218.532 329.919 221.306C341.945 288.323 320.941 376.345 320.941 376.345C320.941 376.345 292.653 277.859 257.757 277.859C222.861 277.859 194.573 376.345 194.573 376.345Z" fill="#266787"/>
<path d="M432.246 467.491H395.437V403.578H432.246V414.682H408.989V428.715H430.629V439.819H408.989V456.3H432.246V467.491Z" fill="#3496B7"/>
<path d="M383.852 449.743C383.852 453.531 382.934 456.825 381.098 459.623C379.262 462.42 376.581 464.577 373.054 466.093C369.557 467.608 365.302 468.366 360.289 468.366C358.074 468.366 355.903 468.22 353.775 467.929C351.677 467.637 349.651 467.215 347.698 466.661C345.775 466.078 343.939 465.364 342.19 464.519V451.928C345.221 453.269 348.369 454.479 351.633 455.557C354.897 456.635 358.132 457.174 361.338 457.174C363.553 457.174 365.331 456.883 366.671 456.3C368.041 455.717 369.032 454.916 369.644 453.896C370.256 452.876 370.562 451.71 370.562 450.398C370.562 448.795 370.023 447.426 368.945 446.289C367.866 445.152 366.38 444.089 364.486 443.098C362.62 442.107 360.507 441.043 358.147 439.906C356.66 439.207 355.043 438.362 353.294 437.371C351.546 436.351 349.884 435.112 348.31 433.655C346.737 432.198 345.44 430.434 344.42 428.365C343.429 426.267 342.933 423.76 342.933 420.846C342.933 417.028 343.808 413.764 345.556 411.053C347.305 408.343 349.797 406.274 353.032 404.846C356.296 403.389 360.143 402.66 364.573 402.66C367.896 402.66 371.058 403.053 374.06 403.84C377.091 404.598 380.253 405.705 383.546 407.163L379.174 417.698C376.231 416.503 373.593 415.585 371.262 414.944C368.93 414.274 366.555 413.939 364.136 413.939C362.446 413.939 361.003 414.216 359.808 414.769C358.613 415.294 357.71 416.052 357.098 417.043C356.485 418.004 356.179 419.126 356.179 420.409C356.179 421.924 356.617 423.207 357.491 424.256C358.394 425.276 359.735 426.267 361.513 427.229C363.32 428.19 365.564 429.312 368.245 430.595C371.509 432.139 374.293 433.757 376.595 435.447C378.927 437.109 380.719 439.076 381.972 441.349C383.225 443.593 383.852 446.391 383.852 449.743Z" fill="#3496B7"/>
<path d="M331.042 418.616V467.491H317.709V418.616H331.042ZM324.398 399.469C326.379 399.469 328.084 399.935 329.512 400.867C330.94 401.771 331.655 403.476 331.655 405.982C331.655 408.46 330.94 410.179 329.512 411.141C328.084 412.073 326.379 412.54 324.398 412.54C322.387 412.54 320.667 412.073 319.239 411.141C317.84 410.179 317.141 408.46 317.141 405.982C317.141 403.476 317.84 401.771 319.239 400.867C320.667 399.935 322.387 399.469 324.398 399.469Z" fill="#3496B7"/>
<path d="M278.277 403.578C284.076 403.578 288.856 404.277 292.616 405.676C296.404 407.075 299.217 409.188 301.053 412.015C302.889 414.842 303.807 418.412 303.807 422.726C303.807 425.64 303.253 428.19 302.146 430.376C301.038 432.562 299.581 434.413 297.774 435.928C295.967 437.444 294.015 438.682 291.916 439.644L310.714 467.491H295.676L280.419 442.966H273.206V467.491H259.653V403.578H278.277ZM277.315 414.682H273.206V431.95H277.577C282.065 431.95 285.271 431.207 287.195 429.72C289.148 428.205 290.124 425.99 290.124 423.075C290.124 420.044 289.075 417.888 286.976 416.605C284.907 415.323 281.687 414.682 277.315 414.682Z" fill="#3496B7"/>
<path d="M244.571 418.616V467.491H231.238V418.616H244.571ZM237.926 399.469C239.908 399.469 241.613 399.935 243.041 400.867C244.469 401.771 245.183 403.476 245.183 405.982C245.183 408.46 244.469 410.179 243.041 411.141C241.613 412.073 239.908 412.54 237.926 412.54C235.915 412.54 234.196 412.073 232.768 411.141C231.369 410.179 230.669 408.46 230.669 405.982C230.669 403.476 231.369 401.771 232.768 400.867C234.196 399.935 235.915 399.469 237.926 399.469Z" fill="#3496B7"/>
<path d="M194.909 489C188.089 489 182.873 487.805 179.259 485.415C175.674 483.055 173.882 479.732 173.882 475.448C173.882 472.504 174.8 470.042 176.636 468.06C178.472 466.078 181.168 464.665 184.723 463.819C183.354 463.237 182.159 462.289 181.139 460.978C180.118 459.637 179.608 458.224 179.608 456.737C179.608 454.872 180.148 453.327 181.226 452.103C182.304 450.85 183.864 449.626 185.904 448.431C183.339 447.324 181.299 445.546 179.783 443.098C178.297 440.65 177.554 437.764 177.554 434.442C177.554 430.886 178.326 427.87 179.871 425.393C181.445 422.886 183.718 420.977 186.691 419.666C189.692 418.354 193.335 417.698 197.62 417.698C198.523 417.698 199.572 417.757 200.767 417.873C201.962 417.99 203.055 418.121 204.046 418.267C205.066 418.413 205.751 418.529 206.101 418.617H223.15V425.393L215.5 427.36C216.199 428.438 216.724 429.589 217.074 430.813C217.423 432.038 217.598 433.334 217.598 434.704C217.598 439.95 215.762 444.045 212.09 446.989C208.447 449.903 203.376 451.36 196.876 451.36C195.332 451.273 193.875 451.156 192.505 451.01C191.835 451.535 191.324 452.089 190.975 452.672C190.625 453.255 190.45 453.867 190.45 454.508C190.45 455.149 190.712 455.688 191.237 456.125C191.791 456.533 192.607 456.854 193.685 457.087C194.793 457.291 196.162 457.393 197.795 457.393H206.101C211.463 457.393 215.543 458.544 218.341 460.847C221.168 463.149 222.582 466.53 222.582 470.989C222.582 476.701 220.192 481.131 215.412 484.279C210.662 487.426 203.827 489 194.909 489ZM195.478 480.301C198.654 480.301 201.379 479.995 203.653 479.382C205.955 478.8 207.718 477.954 208.942 476.847C210.166 475.769 210.778 474.472 210.778 472.956C210.778 471.732 210.414 470.756 209.685 470.027C208.986 469.328 207.908 468.832 206.45 468.541C205.022 468.249 203.186 468.104 200.942 468.104H194.035C192.403 468.104 190.931 468.366 189.62 468.891C188.337 469.415 187.317 470.144 186.559 471.076C185.802 472.038 185.423 473.146 185.423 474.399C185.423 476.235 186.297 477.678 188.046 478.727C189.824 479.776 192.301 480.301 195.478 480.301ZM197.62 443.229C200.126 443.229 201.962 442.457 203.128 440.912C204.294 439.367 204.877 437.269 204.877 434.617C204.877 431.673 204.265 429.473 203.041 428.016C201.846 426.529 200.039 425.786 197.62 425.786C195.172 425.786 193.335 426.529 192.111 428.016C190.887 429.473 190.275 431.673 190.275 434.617C190.275 437.269 190.873 439.367 192.068 440.912C193.292 442.457 195.142 443.229 197.62 443.229Z" fill="#3496B7"/>
<path d="M166.581 418.616V467.491H153.247V418.616H166.581ZM159.936 399.469C161.918 399.469 163.623 399.935 165.051 400.867C166.479 401.771 167.193 403.476 167.193 405.982C167.193 408.46 166.479 410.179 165.051 411.141C163.623 412.073 161.918 412.54 159.936 412.54C157.925 412.54 156.206 412.073 154.777 411.141C153.379 410.179 152.679 408.46 152.679 405.982C152.679 403.476 153.379 401.771 154.777 400.867C156.206 399.935 157.925 399.469 159.936 399.469Z" fill="#3496B7"/>
<path d="M141.051 434.923C141.051 442.121 139.666 448.14 136.898 452.978C134.158 457.786 130.18 461.415 124.963 463.863C119.746 466.282 113.465 467.491 106.121 467.491H88.0225V403.578H108.088C114.792 403.578 120.606 404.773 125.531 407.163C130.457 409.523 134.275 413.035 136.985 417.698C139.695 422.332 141.051 428.074 141.051 434.923ZM126.974 435.272C126.974 430.551 126.274 426.675 124.875 423.644C123.506 420.584 121.466 418.325 118.755 416.868C116.074 415.41 112.751 414.682 108.788 414.682H101.575V456.3H107.389C114.005 456.3 118.915 454.537 122.121 451.01C125.356 447.484 126.974 442.238 126.974 435.272Z" fill="#3496B7"/>
<path fill-rule="evenodd" clip-rule="evenodd" d="M110.771 223.424C98.7716 290.358 119.729 378.273 119.729 378.273C119.729 378.273 147.954 279.908 182.773 279.908C217.591 279.908 245.817 378.273 245.817 378.273C245.817 378.273 266.774 290.358 254.775 223.424C290.185 220.653 313.546 216.893 313.546 216.893C313.546 216.893 301.647 164.029 230.006 150.819C235.822 142.081 239.212 131.586 239.212 120.299C239.212 89.8584 214.559 65.1816 184.149 65.1816C153.739 65.1816 129.087 89.8584 129.087 120.299C129.087 132.869 133.291 144.456 140.367 153.728C64.4294 170.53 52 216.893 52 216.893C52 216.893 75.36 220.653 110.771 223.424Z" fill="#3496B7"/>
<path d="M218.691 204.307C218.691 208.176 218.385 211.63 217.773 214.668C217.183 217.706 216.221 220.286 214.888 222.406C213.576 224.526 211.849 226.144 209.707 227.259C207.565 228.373 204.964 228.931 201.904 228.931C198.057 228.931 194.898 227.958 192.428 226.013C189.958 224.045 188.133 221.226 186.953 217.553C185.773 213.859 185.182 209.444 185.182 204.307C185.182 199.127 185.718 194.701 186.789 191.028C187.882 187.334 189.652 184.504 192.101 182.537C194.549 180.569 197.816 179.586 201.904 179.586C205.729 179.586 208.877 180.569 211.347 182.537C213.839 184.482 215.686 187.302 216.888 190.996C218.09 194.668 218.691 199.105 218.691 204.307ZM195.248 204.307C195.248 207.958 195.445 211.007 195.838 213.455C196.254 215.881 196.942 217.706 197.904 218.931C198.866 220.155 200.199 220.767 201.904 220.767C203.587 220.767 204.909 220.166 205.871 218.963C206.855 217.739 207.554 215.914 207.97 213.488C208.385 211.04 208.593 207.98 208.593 204.307C208.593 200.657 208.385 197.608 207.97 195.16C207.554 192.712 206.855 190.875 205.871 189.651C204.909 188.406 203.587 187.783 201.904 187.783C200.199 187.783 198.866 188.406 197.904 189.651C196.942 190.875 196.254 192.712 195.838 195.16C195.445 197.608 195.248 200.657 195.248 204.307Z" fill="white"/>
<path d="M172.067 228.275H161.936V200.537C161.936 199.772 161.947 198.832 161.969 197.717C161.991 196.581 162.023 195.422 162.067 194.242C162.111 193.039 162.155 191.958 162.198 190.996C161.958 191.28 161.466 191.772 160.723 192.471C160.002 193.149 159.324 193.761 158.69 194.307L153.182 198.734L148.297 192.635L163.739 180.34H172.067V228.275Z" fill="white"/>
<path d="M273.768 -49L576.256 213.781L544.488 250.349L242 -12.4318L273.768 -49Z" fill="#B3952E"/>
<path d="M439.899 137.464C440.187 137.714 440.491 137.928 440.812 138.106C441.139 138.288 441.475 138.454 441.821 138.603L440.116 140.565C439.724 140.447 439.282 140.245 438.792 139.96C438.302 139.686 437.809 139.334 437.313 138.903C436.737 138.403 436.298 137.86 435.998 137.275C435.708 136.69 435.63 136.051 435.766 135.36C435.912 134.668 436.345 133.907 437.066 133.077L441.114 128.418L439.852 127.322L440.82 126.207L443.038 126.587L445.571 125.208L447.256 126.672L445.469 128.729L448.175 131.08L446.455 133.059L443.75 130.709L439.703 135.367C439.382 135.736 439.246 136.103 439.293 136.468C439.351 136.831 439.553 137.164 439.899 137.464Z" fill="#14152B"/>
<path d="M433.914 122.164L431.632 120.181L424.956 127.865L422.32 125.575L428.995 117.891L427.543 116.63L428.647 115.359L430.715 115.912L431.331 115.203C432.047 114.379 432.741 113.859 433.413 113.645C434.095 113.429 434.77 113.449 435.438 113.705C436.116 113.961 436.803 114.391 437.501 114.997C438.014 115.442 438.443 115.891 438.788 116.343C439.139 116.789 439.402 117.179 439.577 117.513L437.22 118.863C437.074 118.625 436.905 118.377 436.714 118.12C436.522 117.863 436.274 117.602 435.969 117.336C435.6 117.016 435.232 116.893 434.863 116.968C434.506 117.041 434.177 117.251 433.877 117.597L433.351 118.202L435.633 120.184L433.914 122.164ZM439.782 123.788L431.387 133.452L428.751 131.162L437.146 121.498L439.782 123.788ZM441.757 118.861C442.149 119.202 442.406 119.587 442.528 120.016C442.655 120.44 442.504 120.9 442.073 121.396C441.648 121.885 441.211 122.103 440.764 122.048C440.321 121.987 439.904 121.786 439.512 121.446C439.114 121.1 438.854 120.713 438.732 120.283C438.621 119.853 438.778 119.392 439.203 118.903C439.634 118.407 440.065 118.19 440.497 118.252C440.939 118.313 441.359 118.516 441.757 118.861Z" fill="#14152B"/>
<path d="M423.931 118.466C423.23 119.273 422.5 119.892 421.74 120.324C420.986 120.761 420.214 121.016 419.424 121.088C418.644 121.159 417.869 121.051 417.096 120.764C416.33 120.483 415.584 120.026 414.858 119.396C414.178 118.805 413.647 118.152 413.267 117.438C412.893 116.728 412.68 115.978 412.63 115.186C412.591 114.393 412.726 113.585 413.036 112.763C413.352 111.945 413.861 111.133 414.561 110.326C415.492 109.255 416.471 108.512 417.497 108.099C418.523 107.686 419.555 107.592 420.594 107.817C421.632 108.042 422.638 108.577 423.612 109.423C424.517 110.209 425.15 111.098 425.512 112.089C425.88 113.086 425.939 114.129 425.691 115.218C425.449 116.312 424.862 117.394 423.931 118.466ZM417.249 112.662C416.699 113.296 416.305 113.889 416.068 114.441C415.831 114.993 415.764 115.507 415.868 115.981C415.971 116.455 416.259 116.898 416.732 117.308C417.199 117.713 417.671 117.932 418.149 117.963C418.634 118 419.13 117.859 419.638 117.542C420.151 117.23 420.683 116.757 421.234 116.123C421.79 115.484 422.181 114.894 422.408 114.353C422.646 113.811 422.711 113.306 422.602 112.838C422.494 112.369 422.203 111.93 421.73 111.519C421.033 110.913 420.318 110.712 419.586 110.915C418.859 111.123 418.08 111.705 417.249 112.662Z" fill="#14152B"/>
<path d="M416.844 103.543C416.977 103.659 417.122 103.8 417.28 103.967C417.449 104.134 417.578 104.276 417.667 104.395L415.321 106.694C415.259 106.59 415.153 106.462 415.002 106.311C414.861 106.158 414.733 106.032 414.618 105.932C414.278 105.636 413.909 105.392 413.511 105.198C413.119 105.009 412.711 104.902 412.288 104.878C411.869 104.848 411.447 104.926 411.022 105.113C410.608 105.299 410.203 105.62 409.807 106.075L405.535 110.993L402.898 108.703L411.293 99.0394L413.29 100.774L412.267 102.737L412.397 102.849C412.872 102.686 413.369 102.592 413.887 102.566C414.415 102.54 414.931 102.604 415.434 102.758C415.948 102.911 416.418 103.173 416.844 103.543Z" fill="#14152B"/>
<path d="M407.005 90.0965C408.635 91.5132 409.52 92.8984 409.658 94.2521C409.802 95.6002 409.34 96.8878 408.274 98.1152C407.793 98.6684 407.249 99.1259 406.642 99.4879C406.039 99.844 405.377 100.053 404.657 100.114C403.942 100.181 403.17 100.056 402.342 99.7412C401.518 99.4203 400.646 98.8594 399.724 98.0584L398.574 97.0597L394.67 101.554L391.99 99.2266L402.968 86.5898L407.005 90.0965ZM404.959 92.1718L403.74 91.113L400.482 94.8643L401.363 95.6302C401.864 96.0657 402.357 96.3774 402.841 96.5652C403.325 96.7531 403.79 96.7934 404.237 96.6863C404.684 96.5791 405.101 96.3037 405.486 95.86C406.027 95.2377 406.254 94.6265 406.169 94.0265C406.088 93.4208 405.685 92.8025 404.959 92.1718Z" fill="#14152B"/>
<path d="M376.307 93.0642C374.959 91.8929 374.133 90.7605 373.829 89.6673C373.525 88.5848 373.742 87.6201 374.478 86.773C374.983 86.191 375.588 85.8618 376.291 85.7853C376.995 85.7088 377.77 85.8924 378.619 86.336C378.448 85.9855 378.374 85.593 378.398 85.1585C378.426 84.7182 378.568 84.3511 378.824 84.0573C379.144 83.6885 379.516 83.4757 379.939 83.4189C380.368 83.3563 380.886 83.3821 381.495 83.4963C381.178 82.8368 381.08 82.1349 381.201 81.3905C381.328 80.6512 381.676 79.9531 382.247 79.2962C382.858 78.5932 383.529 78.1294 384.259 77.9049C385.001 77.6797 385.778 77.6927 386.591 77.944C387.41 78.2003 388.243 78.6964 389.09 79.4323C389.269 79.5875 389.466 79.7792 389.683 80.0075C389.899 80.2358 390.092 80.4494 390.263 80.6485C390.44 80.8525 390.555 80.9932 390.609 81.0705L393.98 83.999L392.816 85.3387L390.966 84.4136C390.919 84.747 390.825 85.0647 390.684 85.3668C390.543 85.6689 390.355 85.9553 390.119 86.2261C389.218 87.2634 388.152 87.7576 386.92 87.7088C385.699 87.6593 384.446 87.0764 383.161 85.9601C382.871 85.6775 382.603 85.4042 382.357 85.1401C382.135 85.1287 381.939 85.1505 381.769 85.2057C381.6 85.2609 381.46 85.3519 381.35 85.4786C381.24 85.6054 381.199 85.7571 381.228 85.9336C381.267 86.1094 381.374 86.3129 381.547 86.5443C381.731 86.7748 381.984 87.0303 382.307 87.3106L383.949 88.7373C385.009 89.6584 385.618 90.5868 385.776 91.5226C385.939 92.4634 385.638 93.3746 384.872 94.2562C383.891 95.3856 382.658 95.851 381.172 95.6524C379.692 95.4588 378.071 94.596 376.307 93.0642ZM377.914 91.4418C378.542 91.9874 379.133 92.395 379.688 92.6644C380.243 92.9447 380.737 93.0804 381.169 93.0717C381.597 93.0687 381.94 92.9174 382.201 92.6178C382.411 92.3758 382.507 92.1202 382.488 91.851C382.47 91.5925 382.341 91.3093 382.103 91.0014C381.871 90.6985 381.533 90.3543 381.089 89.9689L379.724 88.7825C379.401 88.5021 379.065 88.3012 378.716 88.1797C378.372 88.0631 378.045 88.032 377.735 88.0862C377.42 88.1462 377.155 88.3001 376.94 88.5479C376.624 88.9109 376.549 89.3463 376.715 89.8541C376.886 90.3669 377.286 90.8962 377.914 91.4418ZM384.705 84.4801C385.201 84.9106 385.696 85.0733 386.192 84.9681C386.688 84.8629 387.164 84.5482 387.619 84.0238C388.125 83.4418 388.382 82.9016 388.39 82.4032C388.409 81.9041 388.179 81.4468 387.701 81.0313C387.217 80.6108 386.726 80.4424 386.229 80.526C385.737 80.6039 385.238 80.9338 384.732 81.5158C384.277 82.0402 384.034 82.5577 384.005 83.0683C383.982 83.584 384.215 84.0546 384.705 84.4801Z" fill="#14152B"/>
<path d="M382.796 74.2825L374.401 83.9459L371.765 81.6557L380.159 71.9923L382.796 74.2825ZM384.771 69.3554C385.163 69.6958 385.42 70.0808 385.542 70.5105C385.669 70.9344 385.517 71.3941 385.087 71.8897C384.661 72.3795 384.225 72.5968 383.777 72.5417C383.335 72.4808 382.917 72.2802 382.526 71.9398C382.128 71.5943 381.868 71.2068 381.746 70.7771C381.635 70.3467 381.792 69.8866 382.217 69.3968C382.648 68.9012 383.079 68.6843 383.511 68.7459C383.953 68.8068 384.373 69.0099 384.771 69.3554Z" fill="#14152B"/>
<path d="M371.057 58.8672L374.989 62.2837C376.672 63.7454 377.74 65.088 378.194 66.3114C378.648 67.5348 378.359 68.74 377.328 69.927C376.912 70.4053 376.459 70.7699 375.968 71.0208C375.483 71.2767 374.989 71.4035 374.485 71.4009C373.982 71.3984 373.49 71.2544 373.01 70.9689L372.935 71.0553C373.281 71.5072 373.531 71.9874 373.686 72.496C373.846 72.9987 373.851 73.5394 373.702 74.118C373.564 74.6958 373.208 75.316 372.632 75.9787C371.966 76.7451 371.208 77.2393 370.358 77.4613C369.508 77.6834 368.607 77.6385 367.654 77.3266C366.712 77.014 365.763 76.4423 364.807 75.6113L360.079 71.5039L371.057 58.8672ZM369.388 66.1995L370.944 67.5511C371.722 68.2269 372.366 68.5739 372.876 68.5922C373.391 68.6048 373.856 68.3719 374.271 67.8936C374.692 67.4096 374.814 66.9087 374.637 66.3908C374.47 65.8723 374.004 65.2801 373.238 64.6143L371.829 63.3904L369.388 66.1995ZM367.541 68.3258L364.68 71.619L366.426 73.1357C367.233 73.8366 367.93 74.1691 368.517 74.1332C369.104 74.0974 369.626 73.8173 370.081 73.2929C370.352 72.9817 370.52 72.648 370.587 72.2916C370.654 71.9352 370.581 71.548 370.368 71.1302C370.16 70.7173 369.771 70.2631 369.201 69.7675L367.541 68.3258Z" fill="#14152B"/>
<path d="M361.181 55.1863C361.313 55.3014 361.458 55.4427 361.616 55.6102C361.785 55.7769 361.914 55.9193 362.003 56.0375L359.657 58.3368C359.595 58.2329 359.489 58.1051 359.338 57.9534C359.197 57.801 359.069 57.6747 358.954 57.5746C358.614 57.2792 358.245 57.0346 357.847 56.8407C357.455 56.6518 357.048 56.5452 356.624 56.5208C356.205 56.4907 355.783 56.5691 355.358 56.7559C354.944 56.9419 354.539 57.2625 354.143 57.7177L349.871 62.6358L347.234 60.3456L355.629 50.6822L357.626 52.4168L356.603 54.3797L356.733 54.4923C357.208 54.329 357.705 54.2346 358.223 54.2091C358.751 54.1828 359.267 54.2467 359.77 54.4007C360.284 54.554 360.754 54.8158 361.181 55.1863Z" fill="#14152B"/>
<path d="M352.863 48.2794L344.468 57.9428L342.446 56.1857L343.165 54.6419L343.027 54.5217C342.534 54.67 342.042 54.7126 341.551 54.6498C341.059 54.5869 340.584 54.4417 340.124 54.2143C339.664 53.9869 339.233 53.698 338.83 53.3476C338.138 52.7468 337.641 52.1027 337.338 51.4152C337.041 50.7219 336.973 49.9908 337.136 49.2219C337.304 48.458 337.748 47.6611 338.469 46.8314L343.943 40.5303L346.579 42.8205L341.676 48.4647C341.075 49.1561 340.746 49.7853 340.689 50.352C340.631 50.9188 340.873 51.4374 341.415 51.908C341.951 52.3735 342.477 52.6179 342.992 52.6412C343.513 52.6588 344.039 52.4838 344.57 52.1165C345.113 51.7483 345.682 51.2214 346.277 50.5357L350.227 45.9892L352.863 48.2794Z" fill="#14152B"/>
<path d="M337.635 43.4976C336.934 44.3043 336.204 44.9237 335.444 45.3558C334.69 45.7929 333.918 46.0474 333.128 46.1191C332.348 46.1901 331.572 46.0823 330.8 45.7957C330.034 45.514 329.287 45.0579 328.561 44.4271C327.881 43.8364 327.351 43.1838 326.971 42.4692C326.597 41.7597 326.384 41.009 326.334 40.2172C326.295 39.4246 326.43 38.617 326.74 37.7944C327.056 36.9768 327.564 36.1647 328.265 35.358C329.196 34.2862 330.175 33.5438 331.201 33.1309C332.227 32.7179 333.259 32.6238 334.298 32.8484C335.336 33.0731 336.342 33.6084 337.316 34.4544C338.221 35.2403 338.854 36.1292 339.216 37.121C339.583 38.1178 339.643 39.1605 339.395 40.2493C339.152 41.343 338.566 42.4258 337.635 43.4976ZM330.953 37.6932C330.403 38.3271 330.009 38.9202 329.772 39.4725C329.534 40.0248 329.468 40.5381 329.571 41.0124C329.675 41.4866 329.963 41.929 330.436 42.3395C330.902 42.745 331.375 42.9634 331.853 42.9947C332.337 43.031 332.833 42.8907 333.341 42.5737C333.855 42.2616 334.387 41.7887 334.938 41.1548C335.494 40.5152 335.885 39.925 336.112 39.3842C336.35 38.8427 336.415 38.3376 336.306 37.8691C336.197 37.4006 335.907 36.9611 335.434 36.5506C334.737 35.9449 334.022 35.7435 333.29 35.9465C332.563 36.1544 331.784 36.7367 330.953 37.6932Z" fill="#14152B"/>
<path d="M324.192 27.2845L331.348 24.3713L334.235 26.8793L323.338 30.9561L319.065 35.8742L316.403 33.5615L320.601 28.7298L323.189 17.283L326.093 19.8059L324.192 27.2845Z" fill="#14152B"/>
</g>
<defs>
<clipPath id="clip0_519_1626">
<rect width="500" height="500" fill="white"/>
</clipPath>
</defs>
</svg>
