<svg width="970" height="1000" viewBox="0 0 970 1000" fill="none" xmlns="http://www.w3.org/2000/svg">
<g clip-path="url(#clip0_519_1698)">
<rect width="970" height="1000" fill="#14152B"/>
<path fill-rule="evenodd" clip-rule="evenodd" d="M621.168 333H369V585.168H621.168V333ZM448.986 582.428C448.986 582.428 433.99 519.581 442.576 471.732C417.237 469.752 400.521 467.063 400.521 467.063C400.521 467.063 409.415 433.921 463.754 421.909C458.691 415.281 455.683 406.998 455.683 398.012C455.683 376.251 473.323 358.611 495.084 358.611C516.845 358.611 534.485 376.251 534.485 398.012C534.485 406.081 532.06 413.583 527.898 419.83C579.162 429.273 587.677 467.063 587.677 467.063C587.677 467.063 570.961 469.752 545.622 471.732C554.208 519.581 539.212 582.428 539.212 582.428C539.212 582.428 519.014 512.111 494.099 512.111C469.184 512.111 448.986 582.428 448.986 582.428Z" fill="#266787"/>
<path d="M410.656 624.719C410.656 629.865 409.667 634.167 407.688 637.625C405.729 641.062 402.885 643.656 399.156 645.406C395.427 647.135 390.938 648 385.688 648H372.75V602.312H387.094C391.885 602.312 396.042 603.167 399.562 604.875C403.083 606.562 405.812 609.073 407.75 612.406C409.688 615.719 410.656 619.823 410.656 624.719ZM400.594 624.969C400.594 621.594 400.094 618.823 399.094 616.656C398.115 614.469 396.656 612.854 394.719 611.812C392.802 610.771 390.427 610.25 387.594 610.25H382.438V640H386.594C391.323 640 394.833 638.74 397.125 636.219C399.438 633.698 400.594 629.948 400.594 624.969ZM428.906 613.062V648H419.375V613.062H428.906ZM424.156 599.375C425.573 599.375 426.792 599.708 427.812 600.375C428.833 601.021 429.344 602.24 429.344 604.031C429.344 605.802 428.833 607.031 427.812 607.719C426.792 608.385 425.573 608.719 424.156 608.719C422.719 608.719 421.49 608.385 420.469 607.719C419.469 607.031 418.969 605.802 418.969 604.031C418.969 602.24 419.469 601.021 420.469 600.375C421.49 599.708 422.719 599.375 424.156 599.375ZM449.156 663.375C444.281 663.375 440.552 662.521 437.969 660.812C435.406 659.125 434.125 656.75 434.125 653.688C434.125 651.583 434.781 649.823 436.094 648.406C437.406 646.99 439.333 645.979 441.875 645.375C440.896 644.958 440.042 644.281 439.312 643.344C438.583 642.385 438.219 641.375 438.219 640.312C438.219 638.979 438.604 637.875 439.375 637C440.146 636.104 441.26 635.229 442.719 634.375C440.885 633.583 439.427 632.312 438.344 630.562C437.281 628.812 436.75 626.75 436.75 624.375C436.75 621.833 437.302 619.677 438.406 617.906C439.531 616.115 441.156 614.75 443.281 613.812C445.427 612.875 448.031 612.406 451.094 612.406C451.74 612.406 452.49 612.448 453.344 612.531C454.198 612.615 454.979 612.708 455.688 612.812C456.417 612.917 456.906 613 457.156 613.062H469.344V617.906L463.875 619.312C464.375 620.083 464.75 620.906 465 621.781C465.25 622.656 465.375 623.583 465.375 624.562C465.375 628.312 464.062 631.24 461.438 633.344C458.833 635.427 455.208 636.469 450.562 636.469C449.458 636.406 448.417 636.323 447.438 636.219C446.958 636.594 446.594 636.99 446.344 637.406C446.094 637.823 445.969 638.26 445.969 638.719C445.969 639.177 446.156 639.562 446.531 639.875C446.927 640.167 447.51 640.396 448.281 640.562C449.073 640.708 450.052 640.781 451.219 640.781H457.156C460.99 640.781 463.906 641.604 465.906 643.25C467.927 644.896 468.938 647.312 468.938 650.5C468.938 654.583 467.229 657.75 463.812 660C460.417 662.25 455.531 663.375 449.156 663.375ZM449.562 657.156C451.833 657.156 453.781 656.938 455.406 656.5C457.052 656.083 458.312 655.479 459.188 654.688C460.062 653.917 460.5 652.99 460.5 651.906C460.5 651.031 460.24 650.333 459.719 649.812C459.219 649.312 458.448 648.958 457.406 648.75C456.385 648.542 455.073 648.438 453.469 648.438H448.531C447.365 648.438 446.312 648.625 445.375 649C444.458 649.375 443.729 649.896 443.188 650.562C442.646 651.25 442.375 652.042 442.375 652.938C442.375 654.25 443 655.281 444.25 656.031C445.521 656.781 447.292 657.156 449.562 657.156ZM451.094 630.656C452.885 630.656 454.198 630.104 455.031 629C455.865 627.896 456.281 626.396 456.281 624.5C456.281 622.396 455.844 620.823 454.969 619.781C454.115 618.719 452.823 618.188 451.094 618.188C449.344 618.188 448.031 618.719 447.156 619.781C446.281 620.823 445.844 622.396 445.844 624.5C445.844 626.396 446.271 627.896 447.125 629C448 630.104 449.323 630.656 451.094 630.656ZM484.656 613.062V648H475.125V613.062H484.656ZM479.906 599.375C481.323 599.375 482.542 599.708 483.562 600.375C484.583 601.021 485.094 602.24 485.094 604.031C485.094 605.802 484.583 607.031 483.562 607.719C482.542 608.385 481.323 608.719 479.906 608.719C478.469 608.719 477.24 608.385 476.219 607.719C475.219 607.031 474.719 605.802 474.719 604.031C474.719 602.24 475.219 601.021 476.219 600.375C477.24 599.708 478.469 599.375 479.906 599.375ZM508.75 602.312C512.896 602.312 516.312 602.812 519 603.812C521.708 604.812 523.719 606.323 525.031 608.344C526.344 610.365 527 612.917 527 616C527 618.083 526.604 619.906 525.812 621.469C525.021 623.031 523.979 624.354 522.688 625.438C521.396 626.521 520 627.406 518.5 628.094L531.938 648H521.188L510.281 630.469H505.125V648H495.438V602.312H508.75ZM508.062 610.25H505.125V622.594H508.25C511.458 622.594 513.75 622.062 515.125 621C516.521 619.917 517.219 618.333 517.219 616.25C517.219 614.083 516.469 612.542 514.969 611.625C513.49 610.708 511.188 610.25 508.062 610.25ZM546.469 613.062V648H536.938V613.062H546.469ZM541.719 599.375C543.135 599.375 544.354 599.708 545.375 600.375C546.396 601.021 546.906 602.24 546.906 604.031C546.906 605.802 546.396 607.031 545.375 607.719C544.354 608.385 543.135 608.719 541.719 608.719C540.281 608.719 539.052 608.385 538.031 607.719C537.031 607.031 536.531 605.802 536.531 604.031C536.531 602.24 537.031 601.021 538.031 600.375C539.052 599.708 540.281 599.375 541.719 599.375ZM584.219 635.312C584.219 638.021 583.562 640.375 582.25 642.375C580.938 644.375 579.021 645.917 576.5 647C574 648.083 570.958 648.625 567.375 648.625C565.792 648.625 564.24 648.521 562.719 648.312C561.219 648.104 559.771 647.802 558.375 647.406C557 646.99 555.688 646.479 554.438 645.875V636.875C556.604 637.833 558.854 638.698 561.188 639.469C563.521 640.24 565.833 640.625 568.125 640.625C569.708 640.625 570.979 640.417 571.938 640C572.917 639.583 573.625 639.01 574.062 638.281C574.5 637.552 574.719 636.719 574.719 635.781C574.719 634.635 574.333 633.656 573.562 632.844C572.792 632.031 571.729 631.271 570.375 630.562C569.042 629.854 567.531 629.094 565.844 628.281C564.781 627.781 563.625 627.177 562.375 626.469C561.125 625.74 559.938 624.854 558.812 623.812C557.688 622.771 556.76 621.51 556.031 620.031C555.323 618.531 554.969 616.74 554.969 614.656C554.969 611.927 555.594 609.594 556.844 607.656C558.094 605.719 559.875 604.24 562.188 603.219C564.521 602.177 567.271 601.656 570.438 601.656C572.812 601.656 575.073 601.938 577.219 602.5C579.385 603.042 581.646 603.833 584 604.875L580.875 612.406C578.771 611.552 576.885 610.896 575.219 610.438C573.552 609.958 571.854 609.719 570.125 609.719C568.917 609.719 567.885 609.917 567.031 610.312C566.177 610.688 565.531 611.229 565.094 611.938C564.656 612.625 564.438 613.427 564.438 614.344C564.438 615.427 564.75 616.344 565.375 617.094C566.021 617.823 566.979 618.531 568.25 619.219C569.542 619.906 571.146 620.708 573.062 621.625C575.396 622.729 577.385 623.885 579.031 625.094C580.698 626.281 581.979 627.688 582.875 629.312C583.771 630.917 584.219 632.917 584.219 635.312ZM618.812 648H592.5V602.312H618.812V610.25H602.188V620.281H617.656V628.219H602.188V640H618.812V648Z" fill="#3496B7"/>
<path d="M734.021 -50L1077 247.957L1040.98 289.421L698 -8.5367L734.021 -50Z" fill="#B3952E"/>
<path d="M922.389 161.424C922.716 161.708 923.061 161.951 923.425 162.152C923.796 162.359 924.177 162.547 924.569 162.716L922.636 164.941C922.191 164.806 921.691 164.578 921.134 164.255C920.579 163.944 920.02 163.545 919.458 163.057C918.805 162.489 918.307 161.874 917.966 161.21C917.638 160.546 917.55 159.823 917.703 159.039C917.869 158.254 918.361 157.391 919.178 156.45L923.767 151.168L922.336 149.925L923.435 148.661L925.949 149.091L928.821 147.528L930.732 149.188L928.706 151.52L931.773 154.185L929.824 156.43L926.756 153.765L922.167 159.047C921.804 159.465 921.649 159.881 921.703 160.295C921.768 160.707 921.997 161.084 922.389 161.424Z" fill="#14152B"/>
<path d="M915.603 144.076L913.016 141.828L905.447 150.541L902.458 147.944L910.027 139.232L908.38 137.801L909.632 136.361L911.977 136.987L912.675 136.184C913.486 135.249 914.273 134.66 915.035 134.417C915.809 134.172 916.575 134.195 917.331 134.485C918.1 134.775 918.88 135.263 919.67 135.95C920.252 136.455 920.739 136.964 921.13 137.476C921.528 137.982 921.826 138.424 922.024 138.803L919.353 140.334C919.186 140.064 918.995 139.783 918.778 139.491C918.561 139.2 918.28 138.903 917.934 138.603C917.515 138.239 917.098 138.1 916.68 138.184C916.275 138.268 915.902 138.506 915.562 138.898L914.966 139.584L917.553 141.832L915.603 144.076ZM922.257 145.918L912.739 156.875L909.749 154.279L919.268 143.322L922.257 145.918ZM924.497 140.332C924.941 140.718 925.232 141.154 925.371 141.641C925.515 142.122 925.343 142.643 924.855 143.205C924.373 143.761 923.878 144.007 923.37 143.945C922.868 143.876 922.395 143.648 921.951 143.262C921.5 142.87 921.206 142.431 921.067 141.944C920.941 141.456 921.119 140.934 921.601 140.379C922.089 139.817 922.578 139.571 923.068 139.641C923.57 139.71 924.046 139.94 924.497 140.332Z" fill="#14152B"/>
<path d="M904.284 139.883C903.49 140.798 902.662 141.5 901.8 141.99C900.946 142.486 900.07 142.774 899.174 142.856C898.29 142.936 897.41 142.814 896.535 142.489C895.666 142.17 894.82 141.652 893.996 140.937C893.225 140.268 892.624 139.528 892.193 138.717C891.769 137.913 891.528 137.062 891.471 136.164C891.426 135.265 891.58 134.349 891.931 133.417C892.29 132.49 892.866 131.569 893.661 130.654C894.716 129.439 895.826 128.597 896.989 128.129C898.153 127.661 899.323 127.554 900.501 127.809C901.678 128.063 902.819 128.67 903.923 129.63C904.949 130.521 905.667 131.529 906.077 132.653C906.494 133.783 906.562 134.966 906.28 136.2C906.005 137.44 905.34 138.668 904.284 139.883ZM896.709 133.302C896.084 134.021 895.638 134.693 895.369 135.319C895.1 135.946 895.024 136.528 895.142 137.065C895.259 137.603 895.586 138.105 896.122 138.57C896.651 139.03 897.187 139.278 897.729 139.313C898.278 139.354 898.84 139.195 899.416 138.836C899.999 138.482 900.602 137.946 901.227 137.227C901.857 136.502 902.3 135.833 902.558 135.219C902.828 134.605 902.901 134.033 902.778 133.501C902.655 132.97 902.325 132.472 901.789 132.006C900.999 131.32 900.188 131.091 899.358 131.321C898.534 131.557 897.651 132.217 896.709 133.302Z" fill="#14152B"/>
<path d="M896.249 122.963C896.399 123.094 896.564 123.254 896.743 123.444C896.934 123.633 897.081 123.794 897.182 123.928L894.522 126.535C894.452 126.418 894.331 126.273 894.16 126.101C894 125.928 893.855 125.785 893.725 125.671C893.339 125.336 892.921 125.059 892.47 124.839C892.025 124.625 891.563 124.504 891.082 124.476C890.608 124.442 890.129 124.531 889.647 124.743C889.177 124.954 888.718 125.317 888.27 125.833L883.425 131.41L880.436 128.813L889.955 117.856L892.219 119.823L891.059 122.049L891.206 122.176C891.745 121.991 892.308 121.884 892.895 121.855C893.494 121.825 894.079 121.898 894.65 122.072C895.233 122.246 895.766 122.543 896.249 122.963Z" fill="#14152B"/>
<path d="M885.092 107.716C886.941 109.322 887.944 110.893 888.101 112.428C888.264 113.956 887.741 115.416 886.532 116.808C885.987 117.435 885.37 117.954 884.681 118.365C883.998 118.768 883.247 119.005 882.43 119.075C881.619 119.15 880.745 119.009 879.805 118.652C878.872 118.288 877.882 117.652 876.837 116.744L875.533 115.611L871.106 120.708L868.068 118.068L880.516 103.74L885.092 107.716ZM882.773 110.069L881.391 108.869L877.696 113.122L878.696 113.99C879.264 114.484 879.823 114.838 880.371 115.051C880.92 115.264 881.448 115.309 881.955 115.188C882.461 115.066 882.933 114.754 883.37 114.251C883.983 113.545 884.241 112.852 884.145 112.172C884.053 111.485 883.596 110.784 882.773 110.069Z" fill="#14152B"/>
<path d="M850.286 111.081C848.757 109.753 847.82 108.469 847.475 107.23C847.132 106.002 847.377 104.908 848.211 103.948C848.784 103.288 849.47 102.915 850.267 102.828C851.065 102.741 851.945 102.949 852.906 103.452C852.713 103.055 852.629 102.61 852.656 102.117C852.689 101.618 852.85 101.202 853.139 100.869C853.502 100.45 853.924 100.209 854.404 100.145C854.89 100.074 855.478 100.103 856.168 100.233C855.809 99.4848 855.698 98.6889 855.835 97.8449C855.978 97.0066 856.373 96.2151 857.021 95.4702C857.713 94.6731 858.474 94.1473 859.302 93.8928C860.143 93.6374 861.025 93.6522 861.947 93.9371C862.875 94.2277 863.819 94.7902 864.78 95.6246C864.982 95.8005 865.206 96.0179 865.451 96.2768C865.697 96.5356 865.916 96.7779 866.11 97.0035C866.31 97.2349 866.441 97.3944 866.502 97.4821L870.324 100.803L869.005 102.322L866.907 101.273C866.853 101.651 866.747 102.011 866.587 102.353C866.427 102.696 866.213 103.021 865.947 103.328C864.925 104.504 863.716 105.064 862.319 105.009C860.935 104.953 859.514 104.292 858.057 103.026C857.728 102.706 857.424 102.396 857.145 102.096C856.893 102.083 856.671 102.108 856.479 102.171C856.287 102.233 856.129 102.337 856.004 102.48C855.879 102.624 855.833 102.796 855.865 102.996C855.91 103.195 856.03 103.426 856.227 103.689C856.435 103.95 856.722 104.24 857.088 104.557L858.95 106.175C860.153 107.22 860.843 108.272 861.022 109.333C861.207 110.4 860.866 111.433 859.997 112.433C858.885 113.713 857.486 114.241 855.802 114.016C854.124 113.796 852.285 112.818 850.286 111.081ZM852.108 109.242C852.82 109.86 853.49 110.322 854.119 110.628C854.749 110.946 855.309 111.1 855.799 111.09C856.283 111.086 856.673 110.915 856.968 110.575C857.206 110.301 857.315 110.011 857.293 109.706C857.273 109.413 857.128 109.092 856.858 108.742C856.594 108.399 856.211 108.009 855.708 107.572L854.16 106.226C853.794 105.909 853.413 105.681 853.016 105.543C852.627 105.411 852.256 105.375 851.905 105.437C851.547 105.505 851.247 105.679 851.003 105.96C850.645 106.372 850.56 106.866 850.748 107.441C850.942 108.023 851.395 108.623 852.108 109.242ZM859.808 101.348C860.37 101.836 860.932 102.021 861.494 101.901C862.056 101.782 862.595 101.425 863.112 100.831C863.685 100.171 863.976 99.5583 863.986 98.9932C864.007 98.4273 863.747 97.9088 863.205 97.4377C862.656 96.9609 862.1 96.7699 861.536 96.8647C860.977 96.953 860.412 97.3271 859.838 97.987C859.322 98.5816 859.047 99.1684 859.014 99.7474C858.988 100.332 859.252 100.866 859.808 101.348Z" fill="#14152B"/>
<path d="M857.643 89.7857L848.124 100.743L845.135 98.1459L854.654 87.1889L857.643 89.7857ZM859.882 84.199C860.326 84.5849 860.618 85.0215 860.756 85.5087C860.901 85.9894 860.729 86.5107 860.24 87.0726C859.758 87.6279 859.263 87.8744 858.756 87.8118C858.254 87.7428 857.781 87.5153 857.336 87.1293C856.886 86.7377 856.591 86.2982 856.452 85.811C856.326 85.323 856.504 84.8013 856.987 84.2459C857.475 83.684 857.964 83.438 858.453 83.5079C858.955 83.577 859.431 83.8073 859.882 84.199Z" fill="#14152B"/>
<path d="M844.332 72.3064L848.791 76.1803C850.699 77.8377 851.91 79.3599 852.425 80.7471C852.94 82.1343 852.612 83.5008 851.443 84.8467C850.972 85.389 850.458 85.8024 849.901 86.0869C849.351 86.3771 848.791 86.5208 848.22 86.5179C847.649 86.5151 847.092 86.3518 846.547 86.028L846.462 86.126C846.854 86.6384 847.138 87.1829 847.313 87.7595C847.494 88.3296 847.501 88.9427 847.332 89.5987C847.176 90.2538 846.771 90.9571 846.118 91.7085C845.363 92.5775 844.504 93.1378 843.54 93.3896C842.576 93.6413 841.554 93.5904 840.474 93.2369C839.406 92.8824 838.33 92.2341 837.245 91.2919L831.885 86.6347L844.332 72.3064ZM842.441 80.6202L844.205 82.1527C845.087 82.919 845.817 83.3125 846.395 83.3332C846.979 83.3474 847.506 83.0834 847.977 82.5411C848.454 81.9923 848.592 81.4243 848.391 80.8372C848.203 80.2492 847.674 79.5778 846.805 78.8228L845.208 77.4351L842.441 80.6202ZM840.346 83.0311L837.102 86.7651L839.082 88.485C839.997 89.2796 840.787 89.6566 841.453 89.616C842.119 89.5753 842.71 89.2577 843.226 88.6632C843.533 88.3103 843.724 87.9319 843.8 87.5278C843.876 87.1237 843.793 86.6847 843.551 86.2109C843.316 85.7428 842.875 85.2278 842.228 84.6658L840.346 83.0311Z" fill="#14152B"/>
<path d="M833.134 68.1328C833.284 68.2634 833.449 68.4236 833.628 68.6135C833.819 68.8025 833.965 68.964 834.067 69.098L831.406 71.7051C831.337 71.5873 831.216 71.4424 831.045 71.2704C830.885 71.0975 830.74 70.9543 830.61 70.8408C830.224 70.5059 829.806 70.2286 829.355 70.0087C828.91 69.7945 828.448 69.6736 827.967 69.646C827.493 69.6119 827.014 69.7007 826.532 69.9125C826.062 70.1234 825.603 70.487 825.155 71.0031L820.31 76.5796L817.321 73.9828L826.84 63.0259L829.104 64.9926L827.944 67.2182L828.091 67.3459C828.63 67.1608 829.193 67.0538 829.78 67.0248C830.379 66.995 830.964 67.0674 831.535 67.2421C832.117 67.4159 832.651 67.7128 833.134 68.1328Z" fill="#14152B"/>
<path d="M823.704 60.3016L814.185 71.2585L811.892 69.2663L812.707 67.5157L812.55 67.3795C811.992 67.5476 811.434 67.596 810.877 67.5247C810.319 67.4534 809.78 67.2888 809.259 67.0309C808.738 66.7731 808.249 66.4455 807.791 66.0482C807.007 65.367 806.444 64.6367 806.101 63.8571C805.763 63.071 805.687 62.242 805.871 61.3702C806.061 60.504 806.565 59.6005 807.383 58.6597L813.589 51.5151L816.579 54.1119L811.019 60.5116C810.338 61.2957 809.965 62.009 809.899 62.6516C809.834 63.2942 810.109 63.8823 810.723 64.4159C811.33 64.9437 811.926 65.2209 812.511 65.2473C813.101 65.2672 813.698 65.0688 814.301 64.6523C814.915 64.2348 815.561 63.6374 816.236 62.8599L820.714 57.7048L823.704 60.3016Z" fill="#14152B"/>
<path d="M806.436 54.8795C805.642 55.7942 804.814 56.4965 803.952 56.9864C803.098 57.4821 802.222 57.7706 801.326 57.8519C800.442 57.9324 799.562 57.8102 798.687 57.4852C797.818 57.1658 796.972 56.6486 796.148 55.9334C795.377 55.2636 794.776 54.5237 794.345 53.7135C793.921 52.9089 793.68 52.0577 793.623 51.1599C793.578 50.2612 793.732 49.3455 794.083 48.4128C794.441 47.4858 795.018 46.565 795.813 45.6503C796.868 44.435 797.978 43.5933 799.141 43.125C800.305 42.6568 801.475 42.5501 802.653 42.8048C803.83 43.0595 804.971 43.6665 806.075 44.6257C807.101 45.5169 807.819 46.5247 808.229 47.6493C808.646 48.7795 808.714 49.9618 808.432 51.1963C808.157 52.4365 807.492 53.6642 806.436 54.8795ZM798.86 48.2981C798.236 49.0168 797.79 49.6893 797.521 50.3156C797.252 50.9418 797.176 51.5238 797.294 52.0616C797.411 52.5993 797.738 53.1009 798.274 53.5663C798.803 54.0261 799.339 54.2737 799.881 54.3093C800.43 54.3505 800.992 54.1913 801.568 53.8318C802.151 53.478 802.754 52.9418 803.379 52.2231C804.009 51.4979 804.452 50.8286 804.71 50.2155C804.98 49.6014 805.053 49.0288 804.93 48.4976C804.807 47.9664 804.477 47.468 803.941 47.0026C803.151 46.3158 802.34 46.0875 801.51 46.3176C800.686 46.5534 799.803 47.2135 798.86 48.2981Z" fill="#14152B"/>
<path d="M791.194 36.4961L799.309 33.193L802.582 36.0367L790.226 40.6592L785.381 46.2357L782.363 43.6134L787.122 38.1349L790.057 25.1558L793.35 28.0165L791.194 36.4961Z" fill="#14152B"/>
<path fill-rule="evenodd" clip-rule="evenodd" d="M389.055 474.122C380.469 521.97 395.465 584.817 395.465 584.817C395.465 584.817 415.663 514.5 440.578 514.5C465.493 514.5 485.691 584.817 485.691 584.817C485.691 584.817 500.687 521.97 492.101 474.122C517.44 472.141 534.156 469.453 534.156 469.453C534.156 469.453 525.641 431.662 474.377 422.219C478.539 415.972 480.964 408.47 480.964 400.401C480.964 378.641 463.324 361 441.563 361C419.802 361 402.162 378.641 402.162 400.401C402.162 409.387 405.17 417.67 410.233 424.299C355.894 436.31 347 469.453 347 469.453C347 469.453 363.716 472.141 389.055 474.122Z" fill="#3496B7"/>
<path d="M432.828 477H425.586V457.172C425.586 456.625 425.594 455.953 425.609 455.156C425.625 454.344 425.648 453.516 425.68 452.672C425.711 451.812 425.742 451.039 425.773 450.352C425.602 450.555 425.25 450.906 424.719 451.406C424.203 451.891 423.719 452.328 423.266 452.719L419.328 455.883L415.836 451.523L426.875 442.734H432.828V477ZM466.156 459.867C466.156 462.633 465.938 465.102 465.5 467.273C465.078 469.445 464.391 471.289 463.438 472.805C462.5 474.32 461.266 475.477 459.734 476.273C458.203 477.07 456.344 477.469 454.156 477.469C451.406 477.469 449.148 476.773 447.383 475.383C445.617 473.977 444.312 471.961 443.469 469.336C442.625 466.695 442.203 463.539 442.203 459.867C442.203 456.164 442.586 453 443.352 450.375C444.133 447.734 445.398 445.711 447.148 444.305C448.898 442.898 451.234 442.195 454.156 442.195C456.891 442.195 459.141 442.898 460.906 444.305C462.688 445.695 464.008 447.711 464.867 450.352C465.727 452.977 466.156 456.148 466.156 459.867ZM449.398 459.867C449.398 462.477 449.539 464.656 449.82 466.406C450.117 468.141 450.609 469.445 451.297 470.32C451.984 471.195 452.938 471.633 454.156 471.633C455.359 471.633 456.305 471.203 456.992 470.344C457.695 469.469 458.195 468.164 458.492 466.43C458.789 464.68 458.938 462.492 458.938 459.867C458.938 457.258 458.789 455.078 458.492 453.328C458.195 451.578 457.695 450.266 456.992 449.391C456.305 448.5 455.359 448.055 454.156 448.055C452.938 448.055 451.984 448.5 451.297 449.391C450.609 450.266 450.117 451.578 449.82 453.328C449.539 455.078 449.398 457.258 449.398 459.867Z" fill="white"/>
<g clip-path="url(#clip1_519_1698)">
<path d="M283 950.448H294.912V954.104H287.292V957.967H293.773V961.594H287.292V966.017H295.204V969.674H283V950.448Z" fill="#266787"/>
<path d="M304.109 966.165C304.926 966.165 305.666 966.057 306.328 965.841C306.989 965.624 307.554 965.276 308.021 964.794C308.488 964.312 308.853 963.678 309.116 962.891C309.378 962.106 309.51 961.132 309.51 959.972C309.51 958.832 309.378 957.874 309.116 957.097C308.853 956.321 308.488 955.701 308.021 955.239C307.554 954.778 306.989 954.448 306.328 954.252C305.666 954.055 304.926 953.957 304.109 953.957H303.291V966.165H304.109ZM298.999 950.448H304.371C305.831 950.448 307.145 950.634 308.313 951.008C309.481 951.381 310.483 951.956 311.32 952.733C312.157 953.51 312.799 954.498 313.247 955.696C313.695 956.896 313.919 958.321 313.919 959.972C313.919 961.624 313.695 963.059 313.247 964.278C312.799 965.497 312.167 966.504 311.349 967.3C310.532 968.096 309.554 968.691 308.415 969.084C307.276 969.478 306.006 969.674 304.605 969.674H298.999V950.448Z" fill="#266787"/>
<path d="M316.838 950.448H321.159V961.211C321.159 963.098 321.441 964.415 322.006 965.162C322.57 965.91 323.388 966.283 324.458 966.283C325.529 966.283 326.356 965.91 326.94 965.162C327.524 964.415 327.816 963.098 327.816 961.211V950.448H331.962V960.769C331.962 963.993 331.324 966.342 330.049 967.816C328.774 969.291 326.911 970.028 324.458 970.028C321.986 970.028 320.098 969.291 318.794 967.816C317.49 966.342 316.838 963.993 316.838 960.769V950.448Z" fill="#266787"/>
<path d="M335.465 960.179C335.465 958.586 335.708 957.166 336.195 955.918C336.681 954.67 337.338 953.613 338.166 952.748C338.993 951.883 339.956 951.224 341.056 950.772C342.156 950.32 343.319 950.094 344.545 950.094C345.732 950.094 346.808 950.344 347.771 950.846C348.735 951.347 349.538 951.932 350.18 952.6L347.815 955.284C347.328 954.832 346.837 954.478 346.341 954.222C345.845 953.967 345.265 953.839 344.604 953.839C343.942 953.839 343.324 953.982 342.75 954.266C342.175 954.552 341.674 954.959 341.246 955.49C340.818 956.021 340.482 956.67 340.239 957.436C339.995 958.203 339.874 959.068 339.874 960.031C339.874 962.017 340.292 963.555 341.129 964.646C341.966 965.737 343.085 966.283 344.487 966.283C345.265 966.283 345.947 966.126 346.531 965.811C347.114 965.497 347.64 965.084 348.107 964.572L350.472 967.197C349.674 968.141 348.764 968.848 347.742 969.32C346.72 969.792 345.615 970.028 344.428 970.028C343.202 970.028 342.044 969.816 340.954 969.394C339.864 968.971 338.91 968.347 338.093 967.521C337.275 966.696 336.633 965.669 336.166 964.44C335.699 963.211 335.465 961.791 335.465 960.179Z" fill="#266787"/>
<path d="M367.187 961.712L366.749 959.943C366.476 958.98 366.213 957.957 365.96 956.876C365.707 955.795 365.454 954.753 365.202 953.75H365.085C364.851 954.773 364.612 955.819 364.37 956.891C364.126 957.962 363.868 958.98 363.596 959.943L363.129 961.712H367.187ZM368.063 965.103H362.253L361.085 969.674H356.705L362.661 950.448H367.829L373.785 969.674H369.231L368.063 965.103Z" fill="#1A9AB4"/>
<path d="M377.377 967.787C377.863 965.683 378.107 963.58 378.107 961.476C378.107 959.373 377.863 957.269 377.377 955.166C376.89 953.062 376.102 951.047 375.012 949.12L377.698 948C378.924 950.025 379.873 952.128 380.544 954.31C381.216 956.493 381.552 958.881 381.552 961.476C381.552 964.071 381.216 966.46 380.544 968.642C379.873 970.824 378.924 972.927 377.698 974.952L375.012 973.832C376.102 971.905 376.89 969.89 377.377 967.787Z" fill="#1A9AB4"/>
<path d="M392.456 964.278C393.137 964.867 393.891 965.349 394.719 965.723C395.546 966.096 396.358 966.283 397.156 966.283C398.051 966.283 398.718 966.116 399.156 965.781C399.594 965.447 399.813 964.995 399.813 964.425C399.813 964.13 399.75 963.875 399.623 963.658C399.497 963.442 399.312 963.25 399.069 963.083C398.825 962.917 398.533 962.759 398.193 962.612C397.852 962.464 397.478 962.302 397.069 962.125L394.587 961.063C394.1 960.867 393.628 960.611 393.171 960.297C392.714 959.982 392.305 959.614 391.945 959.191C391.585 958.768 391.298 958.277 391.084 957.716C390.869 957.156 390.762 956.522 390.762 955.814C390.762 955.028 390.928 954.286 391.259 953.588C391.589 952.89 392.057 952.281 392.66 951.76C393.263 951.239 393.979 950.831 394.806 950.536C395.633 950.241 396.543 950.094 397.536 950.094C398.645 950.094 399.74 950.31 400.821 950.742C401.901 951.175 402.85 951.804 403.667 952.63L401.478 955.372C400.854 954.881 400.232 954.502 399.609 954.237C398.986 953.971 398.295 953.839 397.536 953.839C396.796 953.839 396.208 953.991 395.77 954.296C395.332 954.601 395.113 955.028 395.113 955.578C395.113 955.873 395.186 956.124 395.332 956.33C395.478 956.537 395.682 956.724 395.945 956.891C396.208 957.058 396.514 957.215 396.864 957.362C397.215 957.51 397.594 957.672 398.003 957.849L400.456 958.852C401.624 959.323 402.543 959.972 403.215 960.798C403.886 961.624 404.222 962.715 404.222 964.071C404.222 964.877 404.061 965.639 403.74 966.357C403.419 967.074 402.952 967.703 402.339 968.244C401.726 968.785 400.971 969.217 400.076 969.541C399.181 969.866 398.168 970.028 397.039 970.028C395.794 970.028 394.553 969.796 393.317 969.335C392.081 968.873 390.976 968.18 390.003 967.256L392.456 964.278Z" fill="#266787"/>
<path d="M415.2 966.283C416.504 966.283 417.536 965.718 418.295 964.587C419.054 963.457 419.433 961.919 419.433 959.972C419.433 958.046 419.054 956.542 418.295 955.461C417.536 954.38 416.504 953.839 415.2 953.839C413.895 953.839 412.864 954.38 412.105 955.461C411.346 956.542 410.966 958.046 410.966 959.972C410.966 961.919 411.346 963.457 412.105 964.587C412.864 965.718 413.895 966.283 415.2 966.283ZM415.2 970.028C413.915 970.028 412.742 969.797 411.682 969.335C410.62 968.873 409.711 968.21 408.952 967.345C408.192 966.48 407.604 965.428 407.185 964.189C406.767 962.951 406.558 961.545 406.558 959.972C406.558 958.4 406.767 956.999 407.185 955.77C407.604 954.542 408.192 953.51 408.952 952.674C409.711 951.839 410.62 951.2 411.682 950.757C412.742 950.315 413.915 950.094 415.2 950.094C416.484 950.094 417.657 950.315 418.718 950.757C419.779 951.2 420.689 951.844 421.448 952.689C422.207 953.534 422.795 954.571 423.214 955.8C423.632 957.029 423.842 958.42 423.842 959.972C423.842 961.545 423.632 962.951 423.214 964.189C422.795 965.428 422.207 966.48 421.448 967.345C420.689 968.21 419.779 968.873 418.718 969.335C417.657 969.797 416.484 970.028 415.2 970.028Z" fill="#266787"/>
<path d="M427.433 950.448H439.432V954.104H431.724V958.557H438.323V962.213H431.724V969.674H427.433V950.448Z" fill="#266787"/>
<path d="M446.439 954.104H441.213V950.448H455.987V954.104H450.76V969.674H446.439V954.104Z" fill="#266787"/>
</g>
<path d="M198.234 947.472C197.199 948.021 195.878 948.305 194.315 948.305C192.284 948.305 190.679 947.655 189.46 946.355C188.242 945.035 187.633 943.329 187.633 941.217C187.633 938.942 188.323 937.114 189.684 935.713C191.045 934.311 192.791 933.601 194.883 933.601C196.244 933.601 197.361 933.804 198.234 934.19V935.957C197.219 935.388 196.102 935.104 194.863 935.104C193.238 935.104 191.918 935.652 190.902 936.749C189.887 937.845 189.379 939.287 189.379 941.115C189.379 942.842 189.846 944.243 190.801 945.259C191.756 946.294 192.994 946.802 194.538 946.802C195.96 946.802 197.199 946.477 198.234 945.848V947.472Z" fill="#266787"/>
<path d="M205.163 948.305C203.66 948.305 202.462 947.818 201.568 946.884C200.675 945.929 200.228 944.67 200.228 943.106C200.228 941.4 200.695 940.059 201.629 939.105C202.563 938.15 203.823 937.663 205.407 937.663C206.91 937.663 208.088 938.13 208.941 939.064C209.794 939.998 210.22 941.298 210.22 942.943C210.22 944.568 209.753 945.868 208.839 946.843C207.925 947.818 206.707 948.305 205.163 948.305ZM205.285 939.044C204.229 939.044 203.416 939.389 202.807 940.1C202.198 940.811 201.893 941.786 201.893 943.045C201.893 944.243 202.198 945.198 202.807 945.888C203.437 946.579 204.249 946.924 205.285 946.924C206.341 946.924 207.133 946.599 207.702 945.909C208.27 945.238 208.555 944.264 208.555 943.004C208.555 941.725 208.27 940.75 207.702 940.059C207.133 939.389 206.341 939.044 205.285 939.044Z" fill="#266787"/>
<path d="M221.491 948.061H219.866V946.335H219.825C219.074 947.635 217.896 948.305 216.332 948.305C215.053 948.305 214.037 947.838 213.265 946.944C212.514 946.03 212.128 944.791 212.128 943.228C212.128 941.542 212.554 940.201 213.387 939.186C214.24 938.17 215.377 937.663 216.779 937.663C218.18 937.663 219.196 938.211 219.825 939.308H219.866V933.032H221.491V948.061ZM219.866 943.471V941.968C219.866 941.156 219.582 940.465 219.054 939.897C218.505 939.328 217.815 939.044 216.982 939.044C215.987 939.044 215.215 939.409 214.646 940.12C214.078 940.851 213.793 941.867 213.793 943.146C213.793 944.304 214.057 945.238 214.606 945.929C215.154 946.599 215.885 946.924 216.799 946.924C217.713 946.924 218.444 946.599 219.013 945.949C219.582 945.299 219.866 944.467 219.866 943.471Z" fill="#266787"/>
<path d="M225.612 935.327C225.327 935.327 225.083 935.226 224.86 935.022C224.657 934.84 224.555 934.576 224.555 934.271C224.555 933.966 224.657 933.723 224.86 933.519C225.083 933.316 225.327 933.215 225.612 933.215C225.916 933.215 226.16 933.316 226.363 933.519C226.586 933.723 226.688 933.966 226.688 934.271C226.688 934.576 226.586 934.819 226.363 935.022C226.16 935.226 225.916 935.327 225.612 935.327ZM226.404 948.061H224.779V937.906H226.404V948.061Z" fill="#266787"/>
<path d="M238.126 948.062H236.501V942.273C236.501 940.12 235.709 939.044 234.145 939.044C233.333 939.044 232.662 939.349 232.114 939.958C231.586 940.567 231.322 941.339 231.322 942.273V948.062H229.697V937.907H231.322V939.592H231.363C232.134 938.313 233.251 937.663 234.693 937.663C235.811 937.663 236.664 938.028 237.253 938.76C237.842 939.47 238.126 940.506 238.126 941.847V948.062Z" fill="#266787"/>
<path d="M249.863 947.249C249.863 950.986 248.076 952.834 244.501 952.834C243.242 952.834 242.145 952.611 241.211 952.124V950.499C242.348 951.128 243.445 951.453 244.481 951.453C246.979 951.453 248.238 950.133 248.238 947.473V946.356H248.197C247.426 947.655 246.248 948.305 244.704 948.305C243.445 948.305 242.429 947.858 241.658 946.945C240.886 946.051 240.5 944.832 240.5 943.309C240.5 941.583 240.906 940.222 241.739 939.186C242.572 938.171 243.709 937.663 245.151 937.663C246.512 937.663 247.527 938.211 248.197 939.308H248.238V937.907H249.863V947.249ZM248.238 943.472V941.969C248.238 941.156 247.954 940.466 247.405 939.897C246.877 939.328 246.187 939.044 245.374 939.044C244.379 939.044 243.587 939.41 243.018 940.141C242.45 940.872 242.165 941.887 242.165 943.207C242.165 944.325 242.429 945.238 242.978 945.929C243.526 946.599 244.257 946.924 245.151 946.924C246.065 946.924 246.796 946.599 247.365 945.949C247.954 945.32 248.238 944.487 248.238 943.472Z" fill="#266787"/>
<path d="M200.834 968.371H197.341L196.325 965.203H191.268L190.273 968.371H186.8L191.979 954.154H195.777L200.834 968.371ZM195.594 962.745L194.071 957.973C193.949 957.607 193.868 957.18 193.827 956.693H193.746C193.725 957.099 193.624 957.526 193.502 957.932L191.958 962.745H195.594Z" fill="#266787"/>
<path d="M214.526 968.371H210.849L208.636 964.716C208.473 964.431 208.311 964.187 208.168 963.964C208.026 963.741 207.864 963.558 207.701 963.416C207.559 963.253 207.397 963.131 207.214 963.05C207.051 962.969 206.869 962.928 206.666 962.928H205.813V968.371H202.604V954.154H207.681C211.134 954.154 212.86 955.434 212.86 958.013C212.86 958.521 212.779 958.968 212.637 959.394C212.474 959.821 212.271 960.186 211.987 960.532C211.702 960.857 211.377 961.161 210.971 961.405C210.585 961.649 210.139 961.831 209.671 961.974V962.014C209.875 962.075 210.078 962.197 210.281 962.339C210.484 962.481 210.667 962.664 210.849 962.867C211.032 963.05 211.215 963.274 211.377 963.497C211.56 963.72 211.702 963.944 211.845 964.167L214.526 968.371ZM205.813 956.551V960.511H207.194C207.884 960.511 208.432 960.308 208.859 959.902C209.286 959.516 209.489 959.008 209.489 958.419C209.489 957.18 208.737 956.551 207.255 956.551H205.813Z" fill="#266787"/>
<path d="M226.058 967.864C225.022 968.371 223.661 968.615 221.996 968.615C219.802 968.615 218.096 967.986 216.837 966.686C215.598 965.406 214.969 963.7 214.969 961.568C214.969 959.293 215.679 957.445 217.081 956.043C218.482 954.621 220.31 953.911 222.544 953.911C223.946 953.911 225.103 954.093 226.058 954.439V957.526C225.103 956.957 224.027 956.673 222.808 956.673C221.468 956.673 220.391 957.079 219.579 957.932C218.746 958.765 218.34 959.902 218.34 961.344C218.34 962.725 218.726 963.822 219.498 964.634C220.269 965.447 221.326 965.853 222.625 965.853C223.885 965.853 225.022 965.548 226.058 964.939V967.864Z" fill="#266787"/>
<path d="M240.845 968.371H237.636V962.583H231.746V968.371H228.537V954.154H231.746V959.821H237.636V954.154H240.845V968.371Z" fill="#266787"/>
<mask id="mask0_519_1698" style="mask-type:luminance" maskUnits="userSpaceOnUse" x="133" y="927" width="49" height="48">
<path d="M181.146 934.147C181.146 930.202 177.944 927 173.999 927H140.647C136.702 927 133.5 930.202 133.5 934.147V967.499C133.5 971.444 136.702 974.646 140.647 974.646H173.999C177.944 974.646 181.146 971.444 181.146 967.499V934.147Z" fill="white"/>
</mask>
<g mask="url(#mask0_519_1698)">
<path d="M144.649 975.302H139.476C135.335 975.302 133.264 973.153 133.264 968.855V956.404L128.143 951.387V950.426L133.264 945.435V933.322C133.264 929.024 135.335 926.875 139.476 926.875H144.649V932.256C144.441 932.256 144.068 932.239 143.531 932.204C142.994 932.169 142.578 932.152 142.284 932.152C140.273 932.152 139.268 932.88 139.268 934.335V944.837C139.268 945.825 139.173 946.544 138.982 946.994C138.792 947.445 138.341 947.973 137.631 948.58L134.797 950.919L137.631 953.311C138.341 953.917 138.801 954.463 139.008 954.948C139.182 955.364 139.268 956.04 139.268 956.976V967.737C139.268 969.245 140.299 969.999 142.362 969.999C142.639 969.999 143.037 969.986 143.557 969.96C144.077 969.934 144.441 969.921 144.649 969.921V975.302Z" fill="#266787"/>
<path d="M169.909 975.261H175.081C179.223 975.261 181.294 973.112 181.294 968.815V956.363L186.415 951.347V950.385L181.294 945.394V933.281C181.294 928.984 179.223 926.835 175.081 926.835H169.909V932.216C170.117 932.216 170.49 932.198 171.027 932.163C171.564 932.129 171.98 932.111 172.274 932.111C174.285 932.111 175.289 932.839 175.289 934.295V944.796C175.289 945.784 175.386 946.503 175.576 946.954C175.767 947.404 176.217 947.933 176.927 948.539L179.761 950.879L176.927 953.27C176.217 953.877 175.759 954.423 175.55 954.908C175.377 955.324 175.289 956 175.289 956.935V967.697C175.289 969.205 174.259 969.958 172.196 969.958C171.92 969.958 171.52 969.945 171.001 969.919C170.481 969.893 170.117 969.88 169.909 969.88V975.261Z" fill="#266787"/>
</g>
<mask id="mask1_519_1698" style="mask-type:luminance" maskUnits="userSpaceOnUse" x="139" y="928" width="38" height="47">
<path d="M176.269 951.347L157.756 974.316L139.243 951.347L157.756 928.378L176.269 951.347Z" fill="white"/>
</mask>
<g mask="url(#mask1_519_1698)">
<path fill-rule="evenodd" clip-rule="evenodd" d="M163.029 938.195C163.028 938.208 163.027 938.22 163.026 938.233C162.739 941.475 162.355 945.825 161.968 950.255C161.197 959.073 160.405 968.317 160.358 969.646C160.328 970.495 160.991 971.207 161.84 971.238C162.688 971.268 163.401 970.604 163.431 969.756C163.474 968.531 164.254 959.42 165.031 950.522C165.418 946.094 165.802 941.746 166.089 938.504C166.211 937.128 166.315 935.952 166.395 935.053L166.435 934.601C166.477 934.132 166.509 933.764 166.532 933.513C166.543 933.387 166.551 933.291 166.557 933.226C166.56 933.193 166.562 933.168 166.563 933.15C166.564 933.141 166.565 933.133 166.565 933.126C166.566 933.123 166.566 933.117 166.567 933.11C166.567 933.106 166.568 933.094 166.568 933.086C166.57 933.062 165.666 931.592 163.984 931.87C163.979 931.875 163.973 931.88 163.968 931.886C163.74 932.105 163.371 932.564 162.964 933.092C162.522 933.665 161.947 934.437 161.269 935.373C159.913 937.247 158.132 939.799 156.163 942.778C152.23 948.727 147.518 956.416 143.939 963.814C143.569 964.579 143.889 965.498 144.653 965.868C145.418 966.238 146.337 965.918 146.707 965.153C150.202 957.928 154.832 950.367 158.728 944.474C160.336 942.042 161.814 939.902 163.029 938.195ZM163.501 932.874L163.501 932.874L163.501 932.874Z" fill="#3496B7"/>
<path fill-rule="evenodd" clip-rule="evenodd" d="M140.258 950.436C152.318 947.736 164.922 948.111 175.101 949.325C175.944 949.425 176.546 950.19 176.445 951.033C176.345 951.877 175.58 952.479 174.737 952.378C164.743 951.186 152.522 950.841 140.929 953.436C140.101 953.622 139.279 953.101 139.093 952.272C138.908 951.443 139.429 950.621 140.258 950.436Z" fill="#3496B7"/>
</g>
<mask id="mask2_519_1698" style="mask-type:luminance" maskUnits="userSpaceOnUse" x="79" y="927" width="49" height="48">
<path d="M127.396 934.147C127.396 930.202 124.194 927 120.249 927H86.8966C82.9521 927 79.7498 930.202 79.7498 934.147V967.499C79.7498 971.444 82.9521 974.646 86.8966 974.646H120.249C124.194 974.646 127.396 971.444 127.396 967.499V934.147Z" fill="white"/>
</mask>
<g mask="url(#mask2_519_1698)">
<path d="M90.8992 975.301H85.7263C81.5846 975.301 79.5138 973.152 79.5138 968.855V956.404L74.393 951.387V950.425L79.5138 945.434V933.322C79.5138 929.024 81.5846 926.875 85.7263 926.875H90.8992V932.256C90.6911 932.256 90.3185 932.238 89.7813 932.204C89.2442 932.169 88.8282 932.152 88.5337 932.152C86.5235 932.152 85.5184 932.88 85.5184 934.335V944.837C85.5184 945.824 85.4231 946.543 85.2324 946.994C85.0418 947.445 84.5913 947.973 83.8808 948.58L81.0475 950.919L83.8808 953.31C84.5913 953.917 85.0504 954.463 85.2585 954.948C85.4318 955.364 85.5184 956.04 85.5184 956.976V967.737C85.5184 969.245 86.5495 969.999 88.6117 969.999C88.889 969.999 89.2875 969.986 89.8074 969.96C90.3272 969.934 90.6911 969.921 90.8992 969.921V975.301Z" fill="#266787"/>
<path d="M116.159 975.261H121.332C125.474 975.261 127.545 973.112 127.545 968.815V956.363L132.666 951.347V950.385L127.545 945.394V933.281C127.545 928.984 125.474 926.835 121.332 926.835H116.159V932.216C116.367 932.216 116.74 932.198 117.277 932.163C117.814 932.129 118.23 932.111 118.525 932.111C120.535 932.111 121.54 932.839 121.54 934.295V944.796C121.54 945.784 121.635 946.503 121.826 946.954C122.017 947.404 122.467 947.933 123.178 948.539L126.011 950.879L123.178 953.27C122.467 953.877 122.008 954.423 121.8 954.908C121.627 955.324 121.54 956 121.54 956.935V967.697C121.54 969.205 120.509 969.958 118.447 969.958C118.17 969.958 117.771 969.945 117.251 969.919C116.731 969.893 116.367 969.88 116.159 969.88V975.261Z" fill="#266787"/>
</g>
<mask id="mask3_519_1698" style="mask-type:luminance" maskUnits="userSpaceOnUse" x="85" y="928" width="38" height="47">
<path d="M85.4929 951.347L104.006 928.378L122.519 951.347L104.006 974.316L85.4929 951.347Z" fill="white"/>
</mask>
<g mask="url(#mask3_519_1698)">
<path fill-rule="evenodd" clip-rule="evenodd" d="M108.091 971.237C107.243 971.207 106.579 970.495 106.609 969.646C106.628 969.095 106.774 967.88 106.968 966.27C107.029 965.769 107.093 965.23 107.161 964.661C107.451 962.193 107.805 959.009 108.081 955.477C108.637 948.382 108.872 940.001 107.715 933.253C107.571 932.416 108.133 931.621 108.97 931.478C109.807 931.334 110.602 931.897 110.746 932.733C111.97 939.872 111.707 948.568 111.147 955.717C110.866 959.307 110.507 962.536 110.214 965.021C110.136 965.687 110.064 966.289 109.999 966.826C109.816 968.35 109.696 969.345 109.682 969.755C109.652 970.603 108.94 971.267 108.091 971.237Z" fill="#3496B7"/>
<path fill-rule="evenodd" clip-rule="evenodd" d="M85.3437 952.271C85.1582 951.443 85.6795 950.621 86.5082 950.435C98.5685 947.735 111.173 948.11 121.351 949.324C122.194 949.425 122.796 950.19 122.696 951.033C122.595 951.876 121.83 952.478 120.987 952.378C110.994 951.186 98.7721 950.841 87.18 953.436C86.3513 953.621 85.5292 953.1 85.3437 952.271Z" fill="#3496B7"/>
</g>
<mask id="mask4_519_1698" style="mask-type:luminance" maskUnits="userSpaceOnUse" x="26" y="927" width="48" height="48">
<path d="M73.6463 934.147C73.6463 930.202 70.4438 927 66.4994 927H33.1469C29.2023 927 26 930.202 26 934.147V967.499C26 971.444 29.2023 974.646 33.1469 974.646H66.4994C70.4438 974.646 73.6463 971.444 73.6463 967.499V934.147Z" fill="white"/>
</mask>
<g mask="url(#mask4_519_1698)">
<path d="M37.1496 975.301H31.9767C27.835 975.301 25.7642 973.152 25.7642 968.855V956.404L20.6434 951.387V950.425L25.7642 945.434V933.321C25.7642 929.024 27.835 926.875 31.9767 926.875H37.1496V932.256C36.9415 932.256 36.569 932.238 36.0317 932.203C35.4945 932.169 35.0787 932.152 34.7842 932.152C32.774 932.152 31.7688 932.879 31.7688 934.335V944.836C31.7688 945.824 31.6734 946.543 31.4828 946.994C31.2922 947.444 30.8417 947.973 30.1312 948.579L27.2978 950.919L30.1312 953.31C30.8417 953.917 31.3009 954.463 31.5089 954.948C31.6822 955.364 31.7688 956.04 31.7688 956.976V967.737C31.7688 969.245 32.7999 969.998 34.8621 969.998C35.1394 969.998 35.538 969.985 36.0579 969.959C36.5776 969.933 36.9415 969.92 37.1496 969.92V975.301Z" fill="#266787"/>
<path d="M62.4097 975.261H67.5824C71.7241 975.261 73.7949 973.112 73.7949 968.814V956.363L78.9158 951.346V950.385L73.7949 945.394V933.281C73.7949 928.983 71.7241 926.834 67.5824 926.834H62.4097V932.215C62.6176 932.215 62.9902 932.198 63.5274 932.163C64.0646 932.129 64.4805 932.111 64.7751 932.111C66.7853 932.111 67.7905 932.839 67.7905 934.295V944.796C67.7905 945.784 67.8857 946.503 68.0763 946.954C68.2669 947.404 68.7176 947.933 69.4281 948.539L72.2613 950.879L69.4281 953.27C68.7176 953.877 68.2583 954.422 68.0503 954.908C67.877 955.323 67.7905 955.999 67.7905 956.935V967.697C67.7905 969.204 66.7593 969.958 64.6972 969.958C64.4199 969.958 64.0213 969.945 63.5014 969.919C62.9815 969.893 62.6176 969.88 62.4097 969.88V975.261Z" fill="#266787"/>
</g>
<mask id="mask5_519_1698" style="mask-type:luminance" maskUnits="userSpaceOnUse" x="31" y="928" width="38" height="47">
<path d="M68.7698 951.347L50.2565 974.316L31.7432 951.347L50.2565 928.378L68.7698 951.347Z" fill="white"/>
</mask>
<g mask="url(#mask5_519_1698)">
<path fill-rule="evenodd" clip-rule="evenodd" d="M32.7581 950.435C44.8184 947.735 57.4226 948.11 67.6009 949.324C68.4441 949.425 69.0461 950.19 68.9455 951.033C68.8449 951.876 68.0799 952.478 67.2367 952.378C57.2436 951.186 45.022 950.841 33.4298 953.436C32.6012 953.622 31.7791 953.1 31.5936 952.272C31.4081 951.443 31.9294 950.621 32.7581 950.435Z" fill="#3496B7"/>
</g>
</g>
<defs>
<clipPath id="clip0_519_1698">
<rect width="970" height="1000" fill="white"/>
</clipPath>
<clipPath id="clip1_519_1698">
<rect width="173" height="27" fill="white" transform="translate(283 948)"/>
</clipPath>
</defs>
</svg>
