<svg width="113" height="105" viewBox="0 0 113 105" fill="none" xmlns="http://www.w3.org/2000/svg">
<path d="M56.2504 2C49.5004 2 44.6459 5.57175 41.8422 10.0575C39.3347 14.0693 38.2914 18.7225 38.0879 22.798C30.4359 26.5818 21.9592 30.3965 15.1342 34.2965C11.5542 36.3422 8.43294 38.4 6.08344 40.6115C3.73394 42.8225 2.00044 45.3125 2.00044 48.25C2.00044 49.5 2.61044 50.5187 3.29794 51.2662C3.98644 52.0137 4.81144 52.5942 5.75094 53.1362C7.62969 54.2202 9.99844 55.1237 12.6039 55.9052C16.4747 57.0667 20.8097 57.9302 24.5789 58.2995C20.8299 64.7595 15.8407 70.693 11.4672 76.3783C6.41294 82.9488 2.00044 89.25 2.00044 96.25C2.00044 97.25 1.98944 98.0308 2.07794 98.815C2.16669 99.5993 2.39194 100.578 3.18044 101.354C3.96919 102.13 4.93469 102.339 5.72119 102.424C6.50769 102.51 7.29994 102.5 8.31619 102.5H36.2017C38.2259 102.5 39.7082 102.623 41.2329 101.643C42.7579 100.663 43.3139 99.3238 44.4004 97.3238L44.4224 97.2838L44.4424 97.2423C44.4424 97.2423 46.8732 92.2998 49.7734 87.3953C51.2234 84.9433 52.7977 82.5013 54.1669 80.7708C54.8519 79.9058 55.4929 79.2198 55.9544 78.8323C56.0954 78.7143 56.1594 78.6923 56.2504 78.6423C56.3412 78.6923 56.4054 78.7143 56.5464 78.8323C57.0079 79.2198 57.6489 79.9058 58.3339 80.7708C59.7032 82.5013 61.2774 84.9433 62.7274 87.3953C65.6274 92.2998 68.0584 97.242 68.0584 97.242L68.0784 97.2832L68.1004 97.3232C69.1869 99.3232 69.7379 100.654 71.2529 101.637C72.7674 102.619 74.2464 102.499 76.2422 102.499H104.25C105.25 102.499 106.03 102.51 106.811 102.423C107.592 102.337 108.561 102.121 109.341 101.34C110.121 100.56 110.337 99.591 110.424 98.8102C110.511 98.0297 110.5 97.2493 110.5 96.2493C110.5 89.2493 106.088 82.948 101.034 76.3773C96.6604 70.6923 91.6712 64.7587 87.9219 58.2985C91.6912 57.929 96.0262 57.066 99.8969 55.9045C102.502 55.1232 104.871 54.2195 106.75 53.1357C107.689 52.5937 108.514 52.0132 109.202 51.2657C109.891 50.5182 110.5 49.4995 110.5 48.2495C110.5 45.312 108.767 42.822 106.417 40.611C104.068 38.3995 100.947 36.3417 97.3667 34.296C90.5417 30.396 82.0649 26.581 74.4129 22.7975C74.2094 18.7225 73.1659 14.0687 70.6587 10.0575C67.8549 5.5715 63.0004 2 56.2504 2Z" fill="#117796" stroke="white" stroke-width="4"/>
</svg>
