<svg width="128" height="128" viewBox="0 0 128 128" fill="none" xmlns="http://www.w3.org/2000/svg">
<mask id="path-1-inside-1_134_4025" fill="white">
<path fill-rule="evenodd" clip-rule="evenodd" d="M37.3471 70.4204C32.9886 94.7084 40.6008 126.609 40.6008 126.609C40.6008 126.609 50.8531 90.9163 63.5 90.9163C76.1469 90.9163 86.3992 126.609 86.3992 126.609C86.3992 126.609 94.0113 94.7084 89.6529 70.4204C102.515 69.4151 111 68.0504 111 68.0504C111 68.0504 106.678 48.868 80.6564 44.0747C82.7688 40.904 84 37.0958 84 33C84 21.9543 75.0457 13 64 13C52.9543 13 44 21.9543 44 33C44 37.5611 45.5268 41.7656 48.0972 45.1303C20.5147 51.2272 16 68.0504 16 68.0504C16 68.0504 24.485 69.4151 37.3471 70.4204Z"/>
</mask>
<path fill-rule="evenodd" clip-rule="evenodd" d="M37.3471 70.4204C32.9886 94.7084 40.6008 126.609 40.6008 126.609C40.6008 126.609 50.8531 90.9163 63.5 90.9163C76.1469 90.9163 86.3992 126.609 86.3992 126.609C86.3992 126.609 94.0113 94.7084 89.6529 70.4204C102.515 69.4151 111 68.0504 111 68.0504C111 68.0504 106.678 48.868 80.6564 44.0747C82.7688 40.904 84 37.0958 84 33C84 21.9543 75.0457 13 64 13C52.9543 13 44 21.9543 44 33C44 37.5611 45.5268 41.7656 48.0972 45.1303C20.5147 51.2272 16 68.0504 16 68.0504C16 68.0504 24.485 69.4151 37.3471 70.4204Z" fill="#117796"/>
<path d="M37.3471 70.4204L41.2842 71.1269L42.0648 66.7769L37.6588 66.4325L37.3471 70.4204ZM40.6008 126.609L36.71 127.538L40.243 142.344L44.4453 127.714L40.6008 126.609ZM86.3992 126.609L82.5547 127.714L86.757 142.344L90.29 127.538L86.3992 126.609ZM89.6529 70.4204L89.3412 66.4325L84.9351 66.7769L85.7158 71.1269L89.6529 70.4204ZM111 68.0504L111.635 71.9997L115.838 71.3238L114.902 67.1712L111 68.0504ZM80.6564 44.0747L77.3275 41.8569L73.9618 46.9089L79.9318 48.0085L80.6564 44.0747ZM48.0972 45.1303L48.9606 49.036L55.0811 47.6831L51.2758 42.702L48.0972 45.1303ZM16 68.0504L12.1367 67.0137L10.9876 71.2957L15.3648 71.9997L16 68.0504ZM33.41 69.7139C31.1247 82.449 31.9948 96.967 33.3696 108.113C34.0618 113.724 34.8924 118.56 35.5509 121.998C35.8804 123.718 36.1673 125.091 36.3732 126.04C36.4762 126.514 36.559 126.883 36.6167 127.135C36.6455 127.262 36.6682 127.359 36.6839 127.427C36.6918 127.461 36.698 127.487 36.7023 127.505C36.7045 127.515 36.7063 127.522 36.7076 127.527C36.7082 127.53 36.7087 127.532 36.7091 127.534C36.7093 127.535 36.7096 127.536 36.7097 127.536C36.7099 127.537 36.71 127.538 40.6008 126.609C44.4916 125.681 44.4917 125.681 44.4918 125.682C44.4917 125.682 44.4918 125.682 44.4918 125.682C44.4917 125.682 44.4916 125.681 44.4913 125.68C44.4907 125.677 44.4897 125.673 44.4883 125.667C44.4854 125.655 44.4807 125.635 44.4743 125.607C44.4615 125.553 44.4419 125.468 44.4161 125.355C44.3644 125.129 44.2879 124.788 44.1912 124.343C43.9978 123.452 43.7242 122.143 43.4081 120.493C42.7755 117.19 41.9755 112.533 41.3094 107.133C39.9678 96.2563 39.2111 82.6797 41.2842 71.1269L33.41 69.7139ZM40.6008 126.609C44.4453 127.714 44.4452 127.714 44.4451 127.714C44.4451 127.714 44.4451 127.715 44.4451 127.715C44.4452 127.714 44.4454 127.713 44.4458 127.712C44.4466 127.709 44.4479 127.705 44.4499 127.698C44.4539 127.684 44.4604 127.662 44.4693 127.632C44.487 127.571 44.5145 127.478 44.5513 127.355C44.6251 127.108 44.7366 126.74 44.8839 126.269C45.1786 125.326 45.6159 123.971 46.1801 122.341C47.3121 119.072 48.9394 114.746 50.9357 110.448C52.9507 106.109 55.2521 101.995 57.6816 99.0273C60.2475 95.8932 62.2281 94.9163 63.5 94.9163V86.9163C58.4485 86.9163 54.4049 90.401 51.4916 93.9594C48.4419 97.6844 45.8089 102.494 43.6799 107.078C41.5323 111.703 39.8061 116.3 38.6205 119.723C38.026 121.44 37.5635 122.873 37.2482 123.882C37.0904 124.387 36.9693 124.786 36.8867 125.062C36.8454 125.201 36.8137 125.308 36.7919 125.382C36.781 125.42 36.7726 125.449 36.7666 125.469C36.7636 125.48 36.7613 125.488 36.7596 125.494C36.7587 125.497 36.758 125.499 36.7574 125.501C36.7572 125.502 36.7569 125.503 36.7567 125.503C36.7565 125.504 36.7563 125.505 40.6008 126.609ZM63.5 94.9163C64.7719 94.9163 66.7525 95.8932 69.3184 99.0273C71.7479 101.995 74.0493 106.109 76.0643 110.448C78.0606 114.746 79.6879 119.072 80.8199 122.341C81.3841 123.971 81.8214 125.326 82.1161 126.269C82.2634 126.74 82.3749 127.108 82.4487 127.355C82.4855 127.478 82.513 127.571 82.5307 127.632C82.5396 127.662 82.5461 127.684 82.5501 127.698C82.5521 127.705 82.5534 127.709 82.5542 127.712C82.5546 127.713 82.5548 127.714 82.5549 127.715C82.5549 127.715 82.5549 127.714 82.5549 127.714C82.5548 127.714 82.5547 127.714 86.3992 126.609C90.2437 125.505 90.2435 125.504 90.2433 125.503C90.2431 125.503 90.2428 125.502 90.2426 125.501C90.242 125.499 90.2413 125.497 90.2404 125.494C90.2387 125.488 90.2364 125.48 90.2334 125.469C90.2274 125.449 90.219 125.42 90.2081 125.382C90.1863 125.308 90.1546 125.201 90.1133 125.062C90.0307 124.786 89.9096 124.387 89.7518 123.882C89.4365 122.873 88.974 121.44 88.3795 119.723C87.1939 116.3 85.4677 111.703 83.3201 107.078C81.1911 102.494 78.5581 97.6844 75.5084 93.9594C72.5951 90.401 68.5515 86.9163 63.5 86.9163V94.9163ZM86.3992 126.609C90.29 127.538 90.2901 127.537 90.2903 127.536C90.2904 127.536 90.2907 127.535 90.2909 127.534C90.2913 127.532 90.2918 127.53 90.2924 127.527C90.2937 127.522 90.2955 127.515 90.2977 127.505C90.302 127.487 90.3082 127.461 90.3161 127.427C90.3318 127.359 90.3545 127.262 90.3833 127.135C90.441 126.883 90.5238 126.514 90.6268 126.04C90.8327 125.091 91.1196 123.718 91.4491 121.998C92.1076 118.56 92.9382 113.724 93.6304 108.113C95.0052 96.967 95.8753 82.449 93.59 69.7139L85.7158 71.1269C87.7889 82.6797 87.0322 96.2563 85.6905 107.133C85.0245 112.533 84.2245 117.19 83.5919 120.493C83.2758 122.143 83.0022 123.452 82.8088 124.343C82.7121 124.788 82.6356 125.129 82.5839 125.355C82.5581 125.468 82.5385 125.553 82.5257 125.607C82.5193 125.635 82.5146 125.655 82.5117 125.667C82.5103 125.673 82.5093 125.677 82.5087 125.68C82.5084 125.681 82.5083 125.682 82.5082 125.682C82.5082 125.682 82.5083 125.682 82.5082 125.682C82.5083 125.681 82.5084 125.681 86.3992 126.609ZM89.9646 74.4082C96.4666 73.9 101.866 73.3007 105.647 72.8274C107.537 72.5907 109.025 72.3854 110.044 72.2384C110.554 72.165 110.946 72.1061 111.214 72.0652C111.348 72.0447 111.451 72.0287 111.521 72.0177C111.557 72.0122 111.584 72.0079 111.603 72.0048C111.612 72.0033 111.62 72.0021 111.625 72.0013C111.628 72.0008 111.63 72.0005 111.632 72.0002C111.633 72.0001 111.633 72 111.634 71.9999C111.634 71.9998 111.634 71.9998 111.635 71.9998C111.635 71.9997 111.635 71.9997 111 68.0504C110.365 64.1012 110.365 64.1011 110.365 64.1011C110.365 64.1011 110.365 64.1011 110.365 64.1011C110.365 64.1011 110.365 64.1011 110.365 64.1011C110.365 64.1012 110.364 64.1013 110.362 64.1016C110.36 64.102 110.355 64.1028 110.348 64.1039C110.334 64.1061 110.312 64.1096 110.282 64.1143C110.222 64.1237 110.129 64.1381 110.006 64.1569C109.76 64.1945 109.389 64.2501 108.903 64.3203C107.929 64.4606 106.491 64.6593 104.653 64.8894C100.976 65.3497 95.7013 65.9354 89.3412 66.4325L89.9646 74.4082ZM111 68.0504C114.902 67.1712 114.902 67.1688 114.901 67.1663C114.901 67.1654 114.9 67.1628 114.9 67.1609C114.899 67.1572 114.898 67.1531 114.897 67.1488C114.895 67.1401 114.893 67.1302 114.89 67.1192C114.885 67.0971 114.879 67.0704 114.871 67.039C114.855 66.9764 114.835 66.8955 114.808 66.7973C114.756 66.6011 114.68 66.3357 114.577 66.0097C114.371 65.358 114.053 64.461 113.588 63.3878C112.659 61.2437 111.131 58.3761 108.705 55.3552C103.801 49.2499 95.3817 42.7199 81.381 40.1409L79.9318 48.0085C91.9528 50.2228 98.7052 55.6806 102.468 60.365C104.374 62.7388 105.554 64.9664 106.248 66.5688C106.595 67.3688 106.818 68.0079 106.95 68.424C107.016 68.6318 107.058 68.7832 107.082 68.8703C107.093 68.9139 107.1 68.9412 107.103 68.9515C107.104 68.9566 107.104 68.9574 107.103 68.9538C107.103 68.952 107.102 68.9491 107.101 68.9451C107.101 68.9431 107.1 68.9408 107.1 68.9382C107.099 68.9369 107.099 68.9348 107.099 68.9341C107.098 68.9319 107.098 68.9296 111 68.0504ZM83.9853 46.2925C86.5217 42.4853 88 37.9092 88 33H80C80 36.2823 79.0159 39.3226 77.3275 41.8569L83.9853 46.2925ZM88 33C88 19.7452 77.2548 9 64 9V17C72.8366 17 80 24.1634 80 33H88ZM64 9C50.7452 9 40 19.7452 40 33H48C48 24.1634 55.1634 17 64 17V9ZM40 33C40 38.4689 41.8341 43.5209 44.9186 47.5586L51.2758 42.702C49.2196 40.0104 48 36.6533 48 33H40ZM47.2339 41.2246C32.6824 44.4411 23.9202 50.5685 18.7632 56.1665C16.2029 58.9458 14.5755 61.5467 13.5742 63.5071C13.0738 64.4866 12.7299 65.3062 12.5035 65.9087C12.3902 66.2101 12.3063 66.4574 12.2468 66.6438C12.2171 66.737 12.1934 66.815 12.1753 66.8769C12.1662 66.9079 12.1585 66.9349 12.1521 66.9577C12.1489 66.9691 12.146 66.9795 12.1434 66.9888C12.1422 66.9935 12.141 66.9979 12.1398 67.002C12.1393 67.0041 12.1385 67.007 12.1382 67.008C12.1374 67.0109 12.1367 67.0137 16 68.0504C19.8633 69.0872 19.8626 69.0898 19.8619 69.0924C19.8617 69.0932 19.861 69.0957 19.8606 69.0973C19.8597 69.1004 19.8589 69.1033 19.8582 69.1059C19.8568 69.1112 19.8556 69.1155 19.8547 69.1188C19.8528 69.1254 19.852 69.1281 19.8523 69.127C19.8529 69.1249 19.858 69.1077 19.8681 69.0762C19.8882 69.0132 19.9282 68.8932 19.9923 68.7226C20.1205 68.3813 20.3447 67.8389 20.6986 67.146C21.4058 65.7615 22.6309 63.7755 24.6471 61.5868C28.6431 57.2491 35.9295 51.9164 48.9606 49.036L47.2339 41.2246ZM16 68.0504C15.3648 71.9997 15.3651 71.9997 15.3654 71.9998C15.3656 71.9998 15.3659 71.9998 15.3662 71.9999C15.3668 72 15.3675 72.0001 15.3683 72.0002C15.37 72.0005 15.3721 72.0008 15.3748 72.0013C15.3802 72.0021 15.3877 72.0033 15.3972 72.0048C15.4162 72.0079 15.4434 72.0122 15.4786 72.0177C15.5491 72.0287 15.6518 72.0447 15.7857 72.0652C16.0536 72.1061 16.4463 72.165 16.956 72.2384C17.9753 72.3854 19.4626 72.5907 21.3534 72.8274C25.1342 73.3007 30.5334 73.9 37.0354 74.4082L37.6588 66.4325C31.2987 65.9354 26.0243 65.3497 22.3471 64.8894C20.5089 64.6593 19.071 64.4606 18.0975 64.3203C17.6107 64.2501 17.2401 64.1945 16.9937 64.1569C16.8705 64.1381 16.7784 64.1237 16.7183 64.1143C16.6882 64.1096 16.6662 64.1061 16.6523 64.1039C16.6453 64.1028 16.6404 64.102 16.6376 64.1016C16.6361 64.1013 16.6352 64.1012 16.6348 64.1011C16.6346 64.1011 16.6345 64.1011 16.6346 64.1011C16.6346 64.1011 16.6348 64.1011 16.6348 64.1011C16.635 64.1011 16.6352 64.1012 16 68.0504Z" fill="white" mask="url(#path-1-inside-1_134_4025)"/>
</svg>
