<svg width="128" height="128" viewBox="0 0 128 128" fill="none" xmlns="http://www.w3.org/2000/svg">
<path fill-rule="evenodd" clip-rule="evenodd" d="M128 0H0V128H128V0ZM40.6008 126.609C40.6008 126.609 32.9886 94.7084 37.3471 70.4204C24.485 69.4151 16 68.0504 16 68.0504C16 68.0504 20.5147 51.2272 48.0972 45.1303C45.5268 41.7656 44 37.5611 44 33C44 21.9543 52.9543 13 64 13C75.0457 13 84 21.9543 84 33C84 37.0958 82.7688 40.904 80.6564 44.0747C106.678 48.868 111 68.0504 111 68.0504C111 68.0504 102.515 69.4151 89.6529 70.4204C94.0114 94.7084 86.3992 126.609 86.3992 126.609C86.3992 126.609 76.1469 90.9163 63.5 90.9163C50.8531 90.9163 40.6008 126.609 40.6008 126.609Z" fill="white"/>
</svg>
