<svg width="84" height="155" viewBox="0 0 84 155" fill="none" xmlns="http://www.w3.org/2000/svg">
<circle cx="42" cy="33" r="18" fill="#117796" stroke="white" stroke-width="4"/>
<path d="M59.452 120.312C61.2123 123.572 62.689 126.822 63.8127 129.503C64.1413 127.719 64.5004 125.632 64.8552 123.312C66.0386 115.575 67.1674 105.302 66.9794 95.0607C66.7906 84.7728 65.2744 74.7545 61.3457 67.3738C59.396 63.711 56.879 60.7483 53.6773 58.6962C50.4858 56.6506 46.5039 55.4386 41.5 55.4386C36.4961 55.4386 32.5142 56.6506 29.3227 58.6962C26.121 60.7483 23.604 63.711 21.6543 67.3738C17.7256 74.7545 16.2094 84.7728 16.0206 95.0607C15.8326 105.302 16.9614 115.575 18.1448 123.312C18.4997 125.632 18.8587 127.719 19.1873 129.503C20.311 126.822 21.7877 123.572 23.548 120.312C25.6575 116.406 28.2231 112.395 31.1381 109.333C34.0129 106.314 37.5179 103.916 41.5 103.916C45.4821 103.916 48.9871 106.314 51.8619 109.333C54.7769 112.395 57.3425 116.406 59.452 120.312Z" fill="#117796" stroke="white" stroke-width="4"/>
</svg>
